<svg width="1280" height="905" viewBox="0 0 1280 905" fill="none" xmlns="http://www.w3.org/2000/svg"><g id="2OG"><!-- <rect width="1280" height="905" fill="white"/> -->
  <path id="Barriere 10" fill="black" d="M232 530h487v10H232Z" />
  <path id="Barriere 11" fill="black" d="M719 540h10v10H719Z" />
  <path id="Barriere 12" fill="black" d="M729 550h10v10H729Z" />
  <path id="Barriere 13" fill="black" d="M739 560h10v10H739Z" />
  <path id="Barriere 14" fill="black" d="M749 570h10v10H749Z" />
  <path id="Barriere 15" fill="black" d="M719 540h10v10H719Z" />
  <path id="Barriere 16" fill="black" d="M739 560h10v10H739Z" />
  <path id="Barriere 17" fill="black" d="M749 570h10v10H749Z" />
  <path id="Barriere 18" fill="black" d="M769 590h10v10H769Z" />
  <path id="Barriere 19" fill="black" d="M759 580h10v10H759Z" />
  <path id="Barriere 20" fill="black" d="M779 600h10v10H779Z" />
  <path id="Barriere 21" fill="black" d="M789 610h10v10H789Z" />
  <path id="Barriere 22" fill="black" d="M809 630h10v10H809Z" />
  <path id="Barriere 23" fill="black" d="M799 620h10v10H799Z" />
  <path id="Barriere 24" fill="black" d="M819 640h10v10H819Z" />
  <path id="Barriere 25" fill="black" d="M829 650h10v10H829Z" />
  <path id="Barriere 26" fill="black" d="M967 23h10v10H967Z" />
  <path id="Barriere 27" fill="black" d="M957 13h10v10H957Z" />
  <path id="Barriere 28" fill="black" d="M977 33h10v10H977Z" />
  <path id="Barriere 29" fill="black" d="M987 43h10v10H987Z" />
  <path id="Barriere 30" fill="black" d="M1007 63h10v10H1007Z" />
  <path id="Barriere 31" fill="black" d="M997 53h10v10H997Z" />
  <path id="Barriere 32" fill="black" d="M1017 73h10v10H1017Z" />
  <path id="Barriere 33" fill="black" d="M1027 83h10v10H1027Z" />
  <path id="Barriere 34" fill="black" d="M1047 103h10v10H1047Z" />
  <path id="Barriere 35" fill="black" d="M1037 93h10v10H1037Z" />
  <path id="Barriere 36" fill="black" d="M1057 113h10v10H1057Z" />
  <path id="Barriere 37" fill="black" d="M1067 123h10v10H1067Z" />
  <path id="Barriere 38" fill="black" d="M1087 143h10v10H1087Z" />
  <path id="Barriere 39" fill="black" d="M1077 133h10v10H1077Z" />
  <path id="Barriere 40" fill="black" d="M1097 153h10v10H1097Z" />
  <path id="Barriere 41" fill="black" d="M1107 163h10v10H1107Z" />
  <path id="Barriere 42" fill="black" d="M1127 183h10v10H1127Z" />
  <path id="Barriere 43" fill="black" d="M1117 173h10v10H1117Z" />
  <path id="Barriere 44" fill="black" d="M1137 193h10v10H1137Z" />
  <path id="Barriere 45" fill="black" d="M1147 203h10v10H1147Z" />
  <path id="Barriere 46" fill="black" d="M1167 223h10v10H1167Z" />
  <path id="Barriere 47" fill="black" d="M1157 213h10v10H1157Z" />
  <path id="Barriere 48" fill="black" d="M1177 233h10v10H1177Z" />
  <path id="Barriere 49" fill="black" d="M1187 243h10v10H1187Z" />
  <path id="Barriere 50" fill="black" d="M1197 253h10v10H1197Z" />
  <path id="Barriere 51" fill="black" d="M1207 263h10v10H1207Z" />
  <path id="Barriere 52" fill="black" d="M1227 283h10v10H1227Z" />
  <path id="Barriere 53" fill="black" d="M1217 273h10v10H1217Z" />
  <path id="Barriere 54" fill="black" d="M1237 293h10v10H1237Z" />
  <path id="Barriere 55" fill="black" d="M1247 303h10v10H1247Z" />
  <path id="Barriere 56" fill="black" d="M1257 313h10v10H1257Z" />
  <path id="Barriere 57" fill="black" d="M1267 323h10v10H1267Z" /><g id="Group 5">
  <path id="Rectangle 31" fill="black" d="M0 531h231.828v130H0Z" />
  <path id="Rectangle 28" fill="#5263FF" d="M217.518 531h14.4821v130H217.518Z" />
  <path id="Rectangle 32" fill="#5263FF" d="M188.897 531h14.4821v130H188.897Z" />
  <path id="Rectangle 33" fill="#5263FF" d="M160.276 531h14.4821v130H160.276Z" />
  <path id="Rectangle 34" fill="#5263FF" d="M131.656 531h14.4821v130H131.656Z" />
  <path id="Rectangle 35" fill="#5263FF" d="M103.035 531h14.4821v130H103.035Z" />
  <path id="Rectangle 36" fill="#5263FF" d="M74.414 531h14.4821v130H74.414Z" />
  <path id="Rectangle 37" fill="#5263FF" d="M45.7932 531h14.4821v130H45.7932Z" />
  <path id="Rectangle 38" fill="#5263FF" d="M17.1724 531h14.4821v130H17.1724Z" /></g><g id="Group 1">
  <path id="Rectangle 19" fill="black" d="M716 660h123v245H716Z" />
  <path id="Rectangle 20" fill="#5263FF" d="M716 675.312h123v15.3125H716Z" />
  <path id="Rectangle 21" fill="#5263FF" d="M716 705.938h123v15.3125H716Z" />
  <path id="Rectangle 22" fill="#5263FF" d="M716 736.562h123v15.3125H716Z" />
  <path id="Rectangle 23" fill="#5263FF" d="M716 767.188h123v15.3125H716Z" />
  <path id="Rectangle 24" fill="#5263FF" d="M716 797.812h123v15.3125H716Z" />
  <path id="Rectangle 25" fill="#5263FF" d="M716 828.438h123v15.3125H716Z" />
  <path id="Rectangle 26" fill="#5263FF" d="M716 859.062h123v15.3125H716Z" />
  <path id="Rectangle 27" fill="#5263FF" d="M716 889.688h123v15.3125H716Z" /></g>
  <path id="Tisch 29" fill="#D9D9D9" d="M337 330h75v200H337Z" />
  <path id="Tisch 35" fill="#D9D9D9" d="M842 475h75v159H842Z" />
  <path id="Tisch 36" fill="#D9D9D9" d="M753 391h75v159H753Z" />
  <path id="Tisch 30" fill="#D9D9D9" d="M432 330h75v200H432Z" />
  <path id="Tisch 31" fill="#D9D9D9" d="M528 330h75v200H528Z" />
  <path id="Tisch 32" fill="#D9D9D9" d="M623 330h75v200H623Z" /><g id="Fenstertische Horizontal">
  <path id="Tisch 21" fill="#D9D9D9" d="M187 53h66.7708v232H187Z" />
  <path id="Tisch 22" fill="#D9D9D9" d="M269.482 53h65.9853v232H269.482Z" />
  <path id="Tisch 23" fill="#D9D9D9" d="M351.178 53h66.7708v232H351.178Z" />
  <path id="Tisch 24" fill="#D9D9D9" d="M432.874 53h67.5564v232H432.874Z" />
  <path id="Tisch 25" fill="#D9D9D9" d="M514.57 53h67.5564v232H514.57Z" />
  <path id="Tisch 26" fill="#D9D9D9" d="M597.052 53h66.7708v232H597.052Z" />
  <path id="Tisch 27" fill="#D9D9D9" d="M679.533 53h65.9853v232H679.533Z" />
  <path id="Tisch 28" fill="#D9D9D9" d="M761.229 53h66.7708v232H761.229Z" />
  <path id="16" opacity="0.6" d="M274.239 56.2727V65H273.182V57.3807H273.131L271 58.7955V57.7216L273.182 56.2727H274.239ZM279.646 65.1193C279.288 65.1136 278.931 65.0455 278.573 64.9148C278.215 64.7841 277.888 64.5639 277.592 64.2543C277.297 63.9418 277.06 63.5199 276.881 62.9886C276.702 62.4545 276.612 61.7841 276.612 60.9773C276.612 60.2045 276.685 59.5199 276.83 58.9233C276.975 58.3239 277.185 57.8196 277.46 57.4105C277.736 56.9986 278.068 56.6861 278.457 56.473C278.85 56.2599 279.291 56.1534 279.783 56.1534C280.271 56.1534 280.706 56.2514 281.087 56.4474C281.47 56.6406 281.783 56.9105 282.024 57.2571C282.266 57.6037 282.422 58.0028 282.493 58.4545H281.453C281.357 58.0625 281.169 57.7372 280.891 57.4787C280.612 57.2202 280.243 57.0909 279.783 57.0909C279.107 57.0909 278.574 57.3849 278.185 57.973C277.798 58.5611 277.604 59.3864 277.601 60.4489H277.669C277.828 60.2074 278.017 60.0014 278.236 59.831C278.457 59.6577 278.702 59.5241 278.969 59.4304C279.236 59.3366 279.519 59.2898 279.817 59.2898C280.317 59.2898 280.774 59.4148 281.189 59.6648C281.604 59.9119 281.936 60.2543 282.186 60.6918C282.436 61.1264 282.561 61.625 282.561 62.1875C282.561 62.7273 282.44 63.2216 282.199 63.6705C281.957 64.1165 281.618 64.4716 281.181 64.7358C280.746 64.9972 280.234 65.125 279.646 65.1193ZM279.646 64.1818C280.004 64.1818 280.325 64.0923 280.609 63.9134C280.896 63.7344 281.122 63.4943 281.287 63.1932C281.455 62.892 281.538 62.5568 281.538 62.1875C281.538 61.8267 281.457 61.4986 281.296 61.2031C281.136 60.9048 280.916 60.6676 280.635 60.4915C280.357 60.3153 280.038 60.2273 279.681 60.2273C279.411 60.2273 279.159 60.2812 278.926 60.3892C278.693 60.4943 278.489 60.6392 278.313 60.8239C278.139 61.0085 278.003 61.2202 277.904 61.4588C277.804 61.6946 277.754 61.9432 277.754 62.2045C277.754 62.5511 277.835 62.875 277.997 63.1761C278.162 63.4773 278.386 63.7202 278.671 63.9048C278.957 64.0895 279.283 64.1818 279.646 64.1818Z" fill="black" />
  <path id="16_2" opacity="0.6" d="M355.149 56.2727V65H354.093V57.3807H354.041L351.911 58.7955V57.7216L354.093 56.2727H355.149ZM360.557 65.1193C360.199 65.1136 359.841 65.0455 359.483 64.9148C359.125 64.7841 358.798 64.5639 358.503 64.2543C358.208 63.9418 357.97 63.5199 357.791 62.9886C357.612 62.4545 357.523 61.7841 357.523 60.9773C357.523 60.2045 357.595 59.5199 357.74 58.9233C357.885 58.3239 358.095 57.8196 358.371 57.4105C358.646 56.9986 358.979 56.6861 359.368 56.473C359.76 56.2599 360.202 56.1534 360.693 56.1534C361.182 56.1534 361.617 56.2514 361.997 56.4474C362.381 56.6406 362.693 56.9105 362.935 57.2571C363.176 57.6037 363.333 58.0028 363.404 58.4545H362.364C362.267 58.0625 362.08 57.7372 361.801 57.4787C361.523 57.2202 361.154 57.0909 360.693 57.0909C360.017 57.0909 359.485 57.3849 359.095 57.973C358.709 58.5611 358.514 59.3864 358.512 60.4489H358.58C358.739 60.2074 358.928 60.0014 359.146 59.831C359.368 59.6577 359.612 59.5241 359.879 59.4304C360.146 59.3366 360.429 59.2898 360.727 59.2898C361.227 59.2898 361.685 59.4148 362.1 59.6648C362.514 59.9119 362.847 60.2543 363.097 60.6918C363.347 61.1264 363.472 61.625 363.472 62.1875C363.472 62.7273 363.351 63.2216 363.11 63.6705C362.868 64.1165 362.529 64.4716 362.091 64.7358C361.656 64.9972 361.145 65.125 360.557 65.1193ZM360.557 64.1818C360.915 64.1818 361.236 64.0923 361.52 63.9134C361.807 63.7344 362.033 63.4943 362.198 63.1932C362.365 62.892 362.449 62.5568 362.449 62.1875C362.449 61.8267 362.368 61.4986 362.206 61.2031C362.047 60.9048 361.827 60.6676 361.546 60.4915C361.267 60.3153 360.949 60.2273 360.591 60.2273C360.321 60.2273 360.07 60.2812 359.837 60.3892C359.604 60.4943 359.399 60.6392 359.223 60.8239C359.05 61.0085 358.914 61.2202 358.814 61.4588C358.715 61.6946 358.665 61.9432 358.665 62.2045C358.665 62.5511 358.746 62.875 358.908 63.1761C359.073 63.4773 359.297 63.7202 359.581 63.9048C359.868 64.0895 360.193 64.1818 360.557 64.1818Z" fill="black" />
  <path id="16_3" opacity="0.6" d="M438.416 56.2727V65H437.36V57.3807H437.308L435.178 58.7955V57.7216L437.36 56.2727H438.416ZM443.824 65.1193C443.466 65.1136 443.108 65.0455 442.75 64.9148C442.392 64.7841 442.066 64.5639 441.77 64.2543C441.475 63.9418 441.237 63.5199 441.058 62.9886C440.879 62.4545 440.79 61.7841 440.79 60.9773C440.79 60.2045 440.862 59.5199 441.007 58.9233C441.152 58.3239 441.362 57.8196 441.638 57.4105C441.914 56.9986 442.246 56.6861 442.635 56.473C443.027 56.2599 443.469 56.1534 443.96 56.1534C444.449 56.1534 444.884 56.2514 445.264 56.4474C445.648 56.6406 445.96 56.9105 446.202 57.2571C446.443 57.6037 446.6 58.0028 446.671 58.4545H445.631C445.534 58.0625 445.347 57.7372 445.068 57.4787C444.79 57.2202 444.421 57.0909 443.96 57.0909C443.284 57.0909 442.752 57.3849 442.362 57.973C441.976 58.5611 441.781 59.3864 441.779 60.4489H441.847C442.006 60.2074 442.195 60.0014 442.414 59.831C442.635 59.6577 442.879 59.5241 443.147 59.4304C443.414 59.3366 443.696 59.2898 443.995 59.2898C444.495 59.2898 444.952 59.4148 445.367 59.6648C445.781 59.9119 446.114 60.2543 446.364 60.6918C446.614 61.1264 446.739 61.625 446.739 62.1875C446.739 62.7273 446.618 63.2216 446.377 63.6705C446.135 64.1165 445.796 64.4716 445.358 64.7358C444.924 64.9972 444.412 65.125 443.824 65.1193ZM443.824 64.1818C444.182 64.1818 444.503 64.0923 444.787 63.9134C445.074 63.7344 445.3 63.4943 445.465 63.1932C445.632 62.892 445.716 62.5568 445.716 62.1875C445.716 61.8267 445.635 61.4986 445.473 61.2031C445.314 60.9048 445.094 60.6676 444.813 60.4915C444.534 60.3153 444.216 60.2273 443.858 60.2273C443.588 60.2273 443.337 60.2812 443.104 60.3892C442.871 60.4943 442.666 60.6392 442.49 60.8239C442.317 61.0085 442.181 61.2202 442.081 61.4588C441.982 61.6946 441.932 61.9432 441.932 62.2045C441.932 62.5511 442.013 62.875 442.175 63.1761C442.34 63.4773 442.564 63.7202 442.848 63.9048C443.135 64.0895 443.46 64.1818 443.824 64.1818Z" fill="black" />
  <path id="16_4" opacity="0.6" d="M518.541 56.2727V65H517.485V57.3807H517.433L515.303 58.7955V57.7216L517.485 56.2727H518.541ZM523.949 65.1193C523.591 65.1136 523.233 65.0455 522.875 64.9148C522.517 64.7841 522.191 64.5639 521.895 64.2543C521.6 63.9418 521.362 63.5199 521.183 62.9886C521.004 62.4545 520.915 61.7841 520.915 60.9773C520.915 60.2045 520.987 59.5199 521.132 58.9233C521.277 58.3239 521.487 57.8196 521.763 57.4105C522.039 56.9986 522.371 56.6861 522.76 56.473C523.152 56.2599 523.594 56.1534 524.085 56.1534C524.574 56.1534 525.009 56.2514 525.389 56.4474C525.773 56.6406 526.085 56.9105 526.327 57.2571C526.568 57.6037 526.725 58.0028 526.796 58.4545H525.756C525.659 58.0625 525.472 57.7372 525.193 57.4787C524.915 57.2202 524.546 57.0909 524.085 57.0909C523.409 57.0909 522.877 57.3849 522.487 57.973C522.101 58.5611 521.906 59.3864 521.904 60.4489H521.972C522.131 60.2074 522.32 60.0014 522.539 59.831C522.76 59.6577 523.004 59.5241 523.272 59.4304C523.539 59.3366 523.821 59.2898 524.12 59.2898C524.62 59.2898 525.077 59.4148 525.492 59.6648C525.906 59.9119 526.239 60.2543 526.489 60.6918C526.739 61.1264 526.864 61.625 526.864 62.1875C526.864 62.7273 526.743 63.2216 526.502 63.6705C526.26 64.1165 525.921 64.4716 525.483 64.7358C525.049 64.9972 524.537 65.125 523.949 65.1193ZM523.949 64.1818C524.307 64.1818 524.628 64.0923 524.912 63.9134C525.199 63.7344 525.425 63.4943 525.59 63.1932C525.757 62.892 525.841 62.5568 525.841 62.1875C525.841 61.8267 525.76 61.4986 525.598 61.2031C525.439 60.9048 525.219 60.6676 524.938 60.4915C524.659 60.3153 524.341 60.2273 523.983 60.2273C523.713 60.2273 523.462 60.2812 523.229 60.3892C522.996 60.4943 522.791 60.6392 522.615 60.8239C522.442 61.0085 522.306 61.2202 522.206 61.4588C522.107 61.6946 522.057 61.9432 522.057 62.2045C522.057 62.5511 522.138 62.875 522.3 63.1761C522.465 63.4773 522.689 63.7202 522.973 63.9048C523.26 64.0895 523.585 64.1818 523.949 64.1818Z" fill="black" />
  <path id="16_5" opacity="0.6" d="M601.809 56.2727V65H600.752V57.3807H600.701L598.57 58.7955V57.7216L600.752 56.2727H601.809ZM607.216 65.1193C606.858 65.1136 606.5 65.0455 606.142 64.9148C605.784 64.7841 605.458 64.5639 605.162 64.2543C604.867 63.9418 604.63 63.5199 604.451 62.9886C604.272 62.4545 604.182 61.7841 604.182 60.9773C604.182 60.2045 604.255 59.5199 604.4 58.9233C604.544 58.3239 604.755 57.8196 605.03 57.4105C605.306 56.9986 605.638 56.6861 606.027 56.473C606.419 56.2599 606.861 56.1534 607.353 56.1534C607.841 56.1534 608.276 56.2514 608.657 56.4474C609.04 56.6406 609.353 56.9105 609.594 57.2571C609.836 57.6037 609.992 58.0028 610.063 58.4545H609.023C608.927 58.0625 608.739 57.7372 608.461 57.4787C608.182 57.2202 607.813 57.0909 607.353 57.0909C606.677 57.0909 606.144 57.3849 605.755 57.973C605.368 58.5611 605.174 59.3864 605.171 60.4489H605.239C605.398 60.2074 605.587 60.0014 605.806 59.831C606.027 59.6577 606.272 59.5241 606.539 59.4304C606.806 59.3366 607.088 59.2898 607.387 59.2898C607.887 59.2898 608.344 59.4148 608.759 59.6648C609.174 59.9119 609.506 60.2543 609.756 60.6918C610.006 61.1264 610.131 61.625 610.131 62.1875C610.131 62.7273 610.01 63.2216 609.769 63.6705C609.527 64.1165 609.188 64.4716 608.75 64.7358C608.316 64.9972 607.804 65.125 607.216 65.1193ZM607.216 64.1818C607.574 64.1818 607.895 64.0923 608.179 63.9134C608.466 63.7344 608.692 63.4943 608.857 63.1932C609.025 62.892 609.108 62.5568 609.108 62.1875C609.108 61.8267 609.027 61.4986 608.865 61.2031C608.706 60.9048 608.486 60.6676 608.205 60.4915C607.927 60.3153 607.608 60.2273 607.25 60.2273C606.981 60.2273 606.729 60.2812 606.496 60.3892C606.263 60.4943 606.059 60.6392 605.882 60.8239C605.709 61.0085 605.573 61.2202 605.473 61.4588C605.374 61.6946 605.324 61.9432 605.324 62.2045C605.324 62.5511 605.405 62.875 605.567 63.1761C605.732 63.4773 605.956 63.7202 606.24 63.9048C606.527 64.0895 606.853 64.1818 607.216 64.1818Z" fill="black" />
  <path id="16_6" opacity="0.6" d="M682.719 56.2727V65H681.662V57.3807H681.611L679.481 58.7955V57.7216L681.662 56.2727H682.719ZM688.127 65.1193C687.769 65.1136 687.411 65.0455 687.053 64.9148C686.695 64.7841 686.368 64.5639 686.073 64.2543C685.777 63.9418 685.54 63.5199 685.361 62.9886C685.182 62.4545 685.093 61.7841 685.093 60.9773C685.093 60.2045 685.165 59.5199 685.31 58.9233C685.455 58.3239 685.665 57.8196 685.941 57.4105C686.216 56.9986 686.549 56.6861 686.938 56.473C687.33 56.2599 687.772 56.1534 688.263 56.1534C688.752 56.1534 689.186 56.2514 689.567 56.4474C689.951 56.6406 690.263 56.9105 690.505 57.2571C690.746 57.6037 690.902 58.0028 690.973 58.4545H689.934C689.837 58.0625 689.65 57.7372 689.371 57.4787C689.093 57.2202 688.723 57.0909 688.263 57.0909C687.587 57.0909 687.054 57.3849 686.665 57.973C686.279 58.5611 686.084 59.3864 686.081 60.4489H686.15C686.309 60.2074 686.498 60.0014 686.716 59.831C686.938 59.6577 687.182 59.5241 687.449 59.4304C687.716 59.3366 687.999 59.2898 688.297 59.2898C688.797 59.2898 689.255 59.4148 689.669 59.6648C690.084 59.9119 690.417 60.2543 690.667 60.6918C690.917 61.1264 691.042 61.625 691.042 62.1875C691.042 62.7273 690.921 63.2216 690.679 63.6705C690.438 64.1165 690.098 64.4716 689.661 64.7358C689.226 64.9972 688.715 65.125 688.127 65.1193ZM688.127 64.1818C688.485 64.1818 688.806 64.0923 689.09 63.9134C689.377 63.7344 689.603 63.4943 689.767 63.1932C689.935 62.892 690.019 62.5568 690.019 62.1875C690.019 61.8267 689.938 61.4986 689.776 61.2031C689.617 60.9048 689.397 60.6676 689.115 60.4915C688.837 60.3153 688.519 60.2273 688.161 60.2273C687.891 60.2273 687.64 60.2812 687.407 60.3892C687.174 60.4943 686.969 60.6392 686.793 60.8239C686.62 61.0085 686.483 61.2202 686.384 61.4588C686.284 61.6946 686.235 61.9432 686.235 62.2045C686.235 62.5511 686.316 62.875 686.478 63.1761C686.642 63.4773 686.867 63.7202 687.151 63.9048C687.438 64.0895 687.763 64.1818 688.127 64.1818Z" fill="black" />
  <path id="16_7" opacity="0.6" d="M765.986 56.2727V65H764.929V57.3807H764.878L762.748 58.7955V57.7216L764.929 56.2727H765.986ZM771.394 65.1193C771.036 65.1136 770.678 65.0455 770.32 64.9148C769.962 64.7841 769.635 64.5639 769.34 64.2543C769.044 63.9418 768.807 63.5199 768.628 62.9886C768.449 62.4545 768.36 61.7841 768.36 60.9773C768.36 60.2045 768.432 59.5199 768.577 58.9233C768.722 58.3239 768.932 57.8196 769.208 57.4105C769.483 56.9986 769.816 56.6861 770.205 56.473C770.597 56.2599 771.039 56.1534 771.53 56.1534C772.019 56.1534 772.454 56.2514 772.834 56.4474C773.218 56.6406 773.53 56.9105 773.772 57.2571C774.013 57.6037 774.169 58.0028 774.241 58.4545H773.201C773.104 58.0625 772.917 57.7372 772.638 57.4787C772.36 57.2202 771.991 57.0909 771.53 57.0909C770.854 57.0909 770.321 57.3849 769.932 57.973C769.546 58.5611 769.351 59.3864 769.348 60.4489H769.417C769.576 60.2074 769.765 60.0014 769.983 59.831C770.205 59.6577 770.449 59.5241 770.716 59.4304C770.983 59.3366 771.266 59.2898 771.564 59.2898C772.064 59.2898 772.522 59.4148 772.937 59.6648C773.351 59.9119 773.684 60.2543 773.934 60.6918C774.184 61.1264 774.309 61.625 774.309 62.1875C774.309 62.7273 774.188 63.2216 773.946 63.6705C773.705 64.1165 773.366 64.4716 772.928 64.7358C772.493 64.9972 771.982 65.125 771.394 65.1193ZM771.394 64.1818C771.752 64.1818 772.073 64.0923 772.357 63.9134C772.644 63.7344 772.87 63.4943 773.035 63.1932C773.202 62.892 773.286 62.5568 773.286 62.1875C773.286 61.8267 773.205 61.4986 773.043 61.2031C772.884 60.9048 772.664 60.6676 772.383 60.4915C772.104 60.3153 771.786 60.2273 771.428 60.2273C771.158 60.2273 770.907 60.2812 770.674 60.3892C770.441 60.4943 770.236 60.6392 770.06 60.8239C769.887 61.0085 769.75 61.2202 769.651 61.4588C769.552 61.6946 769.502 61.9432 769.502 62.2045C769.502 62.5511 769.583 62.875 769.745 63.1761C769.91 63.4773 770.134 63.7202 770.418 63.9048C770.705 64.0895 771.03 64.1818 771.394 64.1818Z" fill="black" />
  <path id="16_8" opacity="0.6" d="M190.972 56.2727V65H189.915V57.3807H189.864L187.733 58.7955V57.7216L189.915 56.2727H190.972ZM196.379 65.1193C196.021 65.1136 195.663 65.0455 195.305 64.9148C194.947 64.7841 194.621 64.5639 194.325 64.2543C194.03 63.9418 193.793 63.5199 193.614 62.9886C193.435 62.4545 193.345 61.7841 193.345 60.9773C193.345 60.2045 193.418 59.5199 193.562 58.9233C193.707 58.3239 193.918 57.8196 194.193 57.4105C194.469 56.9986 194.801 56.6861 195.19 56.473C195.582 56.2599 196.024 56.1534 196.516 56.1534C197.004 56.1534 197.439 56.2514 197.82 56.4474C198.203 56.6406 198.516 56.9105 198.757 57.2571C198.999 57.6037 199.155 58.0028 199.226 58.4545H198.186C198.089 58.0625 197.902 57.7372 197.624 57.4787C197.345 57.2202 196.976 57.0909 196.516 57.0909C195.839 57.0909 195.307 57.3849 194.918 57.973C194.531 58.5611 194.337 59.3864 194.334 60.4489H194.402C194.561 60.2074 194.75 60.0014 194.969 59.831C195.19 59.6577 195.435 59.5241 195.702 59.4304C195.969 59.3366 196.251 59.2898 196.55 59.2898C197.05 59.2898 197.507 59.4148 197.922 59.6648C198.337 59.9119 198.669 60.2543 198.919 60.6918C199.169 61.1264 199.294 61.625 199.294 62.1875C199.294 62.7273 199.173 63.2216 198.932 63.6705C198.69 64.1165 198.351 64.4716 197.913 64.7358C197.479 64.9972 196.967 65.125 196.379 65.1193ZM196.379 64.1818C196.737 64.1818 197.058 64.0923 197.342 63.9134C197.629 63.7344 197.855 63.4943 198.02 63.1932C198.188 62.892 198.271 62.5568 198.271 62.1875C198.271 61.8267 198.19 61.4986 198.028 61.2031C197.869 60.9048 197.649 60.6676 197.368 60.4915C197.089 60.3153 196.771 60.2273 196.413 60.2273C196.143 60.2273 195.892 60.2812 195.659 60.3892C195.426 60.4943 195.222 60.6392 195.045 60.8239C194.872 61.0085 194.736 61.2202 194.636 61.4588C194.537 61.6946 194.487 61.9432 194.487 62.2045C194.487 62.5511 194.568 62.875 194.73 63.1761C194.895 63.4773 195.119 63.7202 195.403 63.9048C195.69 64.0895 196.016 64.1818 196.379 64.1818Z" fill="black" /></g>
  <path id="Tisch 33" fill="#D9D9D9" d="M983 587h283v72H983Z" />
  <path id="Tisch 34" fill="#D9D9D9" d="M983 703h283v72H983Z" />
  <path id="6" opacity="0.6" d="M340.801 342.119C340.443 342.114 340.085 342.045 339.727 341.915C339.369 341.784 339.043 341.564 338.747 341.254C338.452 340.942 338.214 340.52 338.036 339.989C337.857 339.455 337.767 338.784 337.767 337.977C337.767 337.205 337.839 336.52 337.984 335.923C338.129 335.324 338.339 334.82 338.615 334.411C338.891 333.999 339.223 333.686 339.612 333.473C340.004 333.26 340.446 333.153 340.938 333.153C341.426 333.153 341.861 333.251 342.241 333.447C342.625 333.641 342.938 333.911 343.179 334.257C343.42 334.604 343.577 335.003 343.648 335.455H342.608C342.511 335.062 342.324 334.737 342.045 334.479C341.767 334.22 341.398 334.091 340.938 334.091C340.261 334.091 339.729 334.385 339.339 334.973C338.953 335.561 338.759 336.386 338.756 337.449H338.824C338.983 337.207 339.172 337.001 339.391 336.831C339.612 336.658 339.857 336.524 340.124 336.43C340.391 336.337 340.673 336.29 340.972 336.29C341.472 336.29 341.929 336.415 342.344 336.665C342.759 336.912 343.091 337.254 343.341 337.692C343.591 338.126 343.716 338.625 343.716 339.188C343.716 339.727 343.595 340.222 343.354 340.67C343.112 341.116 342.773 341.472 342.335 341.736C341.901 341.997 341.389 342.125 340.801 342.119ZM340.801 341.182C341.159 341.182 341.48 341.092 341.764 340.913C342.051 340.734 342.277 340.494 342.442 340.193C342.609 339.892 342.693 339.557 342.693 339.188C342.693 338.827 342.612 338.499 342.45 338.203C342.291 337.905 342.071 337.668 341.79 337.491C341.511 337.315 341.193 337.227 340.835 337.227C340.565 337.227 340.314 337.281 340.081 337.389C339.848 337.494 339.643 337.639 339.467 337.824C339.294 338.009 339.158 338.22 339.058 338.459C338.959 338.695 338.909 338.943 338.909 339.205C338.909 339.551 338.99 339.875 339.152 340.176C339.317 340.477 339.541 340.72 339.825 340.905C340.112 341.089 340.438 341.182 340.801 341.182Z" fill="black" />
  <path id="6_2" opacity="0.6" d="M435.801 342.119C435.443 342.114 435.085 342.045 434.727 341.915C434.369 341.784 434.043 341.564 433.747 341.254C433.452 340.942 433.214 340.52 433.036 339.989C432.857 339.455 432.767 338.784 432.767 337.977C432.767 337.205 432.839 336.52 432.984 335.923C433.129 335.324 433.339 334.82 433.615 334.411C433.891 333.999 434.223 333.686 434.612 333.473C435.004 333.26 435.446 333.153 435.938 333.153C436.426 333.153 436.861 333.251 437.241 333.447C437.625 333.641 437.938 333.911 438.179 334.257C438.42 334.604 438.577 335.003 438.648 335.455H437.608C437.511 335.062 437.324 334.737 437.045 334.479C436.767 334.22 436.398 334.091 435.938 334.091C435.261 334.091 434.729 334.385 434.339 334.973C433.953 335.561 433.759 336.386 433.756 337.449H433.824C433.983 337.207 434.172 337.001 434.391 336.831C434.612 336.658 434.857 336.524 435.124 336.43C435.391 336.337 435.673 336.29 435.972 336.29C436.472 336.29 436.929 336.415 437.344 336.665C437.759 336.912 438.091 337.254 438.341 337.692C438.591 338.126 438.716 338.625 438.716 339.188C438.716 339.727 438.595 340.222 438.354 340.67C438.112 341.116 437.773 341.472 437.335 341.736C436.901 341.997 436.389 342.125 435.801 342.119ZM435.801 341.182C436.159 341.182 436.48 341.092 436.764 340.913C437.051 340.734 437.277 340.494 437.442 340.193C437.609 339.892 437.693 339.557 437.693 339.188C437.693 338.827 437.612 338.499 437.45 338.203C437.291 337.905 437.071 337.668 436.79 337.491C436.511 337.315 436.193 337.227 435.835 337.227C435.565 337.227 435.314 337.281 435.081 337.389C434.848 337.494 434.643 337.639 434.467 337.824C434.294 338.009 434.158 338.22 434.058 338.459C433.959 338.695 433.909 338.943 433.909 339.205C433.909 339.551 433.99 339.875 434.152 340.176C434.317 340.477 434.541 340.72 434.825 340.905C435.112 341.089 435.438 341.182 435.801 341.182Z" fill="black" />
  <path id="6_3" opacity="0.6" d="M531.801 342.119C531.443 342.114 531.085 342.045 530.727 341.915C530.369 341.784 530.043 341.564 529.747 341.254C529.452 340.942 529.214 340.52 529.036 339.989C528.857 339.455 528.767 338.784 528.767 337.977C528.767 337.205 528.839 336.52 528.984 335.923C529.129 335.324 529.339 334.82 529.615 334.411C529.891 333.999 530.223 333.686 530.612 333.473C531.004 333.26 531.446 333.153 531.938 333.153C532.426 333.153 532.861 333.251 533.241 333.447C533.625 333.641 533.938 333.911 534.179 334.257C534.42 334.604 534.577 335.003 534.648 335.455H533.608C533.511 335.062 533.324 334.737 533.045 334.479C532.767 334.22 532.398 334.091 531.938 334.091C531.261 334.091 530.729 334.385 530.339 334.973C529.953 335.561 529.759 336.386 529.756 337.449H529.824C529.983 337.207 530.172 337.001 530.391 336.831C530.612 336.658 530.857 336.524 531.124 336.43C531.391 336.337 531.673 336.29 531.972 336.29C532.472 336.29 532.929 336.415 533.344 336.665C533.759 336.912 534.091 337.254 534.341 337.692C534.591 338.126 534.716 338.625 534.716 339.188C534.716 339.727 534.595 340.222 534.354 340.67C534.112 341.116 533.773 341.472 533.335 341.736C532.901 341.997 532.389 342.125 531.801 342.119ZM531.801 341.182C532.159 341.182 532.48 341.092 532.764 340.913C533.051 340.734 533.277 340.494 533.442 340.193C533.609 339.892 533.693 339.557 533.693 339.188C533.693 338.827 533.612 338.499 533.45 338.203C533.291 337.905 533.071 337.668 532.79 337.491C532.511 337.315 532.193 337.227 531.835 337.227C531.565 337.227 531.314 337.281 531.081 337.389C530.848 337.494 530.643 337.639 530.467 337.824C530.294 338.009 530.158 338.22 530.058 338.459C529.959 338.695 529.909 338.943 529.909 339.205C529.909 339.551 529.99 339.875 530.152 340.176C530.317 340.477 530.541 340.72 530.825 340.905C531.112 341.089 531.438 341.182 531.801 341.182Z" fill="black" />
  <path id="6_4" opacity="0.6" d="M626.801 342.119C626.443 342.114 626.085 342.045 625.727 341.915C625.369 341.784 625.043 341.564 624.747 341.254C624.452 340.942 624.214 340.52 624.036 339.989C623.857 339.455 623.767 338.784 623.767 337.977C623.767 337.205 623.839 336.52 623.984 335.923C624.129 335.324 624.339 334.82 624.615 334.411C624.891 333.999 625.223 333.686 625.612 333.473C626.004 333.26 626.446 333.153 626.938 333.153C627.426 333.153 627.861 333.251 628.241 333.447C628.625 333.641 628.938 333.911 629.179 334.257C629.42 334.604 629.577 335.003 629.648 335.455H628.608C628.511 335.062 628.324 334.737 628.045 334.479C627.767 334.22 627.398 334.091 626.938 334.091C626.261 334.091 625.729 334.385 625.339 334.973C624.953 335.561 624.759 336.386 624.756 337.449H624.824C624.983 337.207 625.172 337.001 625.391 336.831C625.612 336.658 625.857 336.524 626.124 336.43C626.391 336.337 626.673 336.29 626.972 336.29C627.472 336.29 627.929 336.415 628.344 336.665C628.759 336.912 629.091 337.254 629.341 337.692C629.591 338.126 629.716 338.625 629.716 339.188C629.716 339.727 629.595 340.222 629.354 340.67C629.112 341.116 628.773 341.472 628.335 341.736C627.901 341.997 627.389 342.125 626.801 342.119ZM626.801 341.182C627.159 341.182 627.48 341.092 627.764 340.913C628.051 340.734 628.277 340.494 628.442 340.193C628.609 339.892 628.693 339.557 628.693 339.188C628.693 338.827 628.612 338.499 628.45 338.203C628.291 337.905 628.071 337.668 627.79 337.491C627.511 337.315 627.193 337.227 626.835 337.227C626.565 337.227 626.314 337.281 626.081 337.389C625.848 337.494 625.643 337.639 625.467 337.824C625.294 338.009 625.158 338.22 625.058 338.459C624.959 338.695 624.909 338.943 624.909 339.205C624.909 339.551 624.99 339.875 625.152 340.176C625.317 340.477 625.541 340.72 625.825 340.905C626.112 341.089 626.438 341.182 626.801 341.182Z" fill="black" />
  <path id="Rectangle 39" fill="#D9D9D9" d="M930.128 75.2733h54.9228v212.325H930.128Z" />
  <path id="Rectangle 40" fill="#D9D9D9" d="M999 143h54.9228v212.325H999Z" />
  <path id="Rectangle 41" fill="#D9D9D9" d="M1069.91 198.976h54.9228v212.325H1069.91Z" />
  <path id="Rectangle 42" fill="#D9D9D9" d="M1140 263h54.9228v212.325H1140Z" />
  <path id="10" opacity="0.6" d="M933.972 78.2727V87H932.915V79.3807H932.864L930.733 80.7955V79.7216L932.915 78.2727H933.972ZM939.328 87.1193C938.686 87.1193 938.139 86.9446 937.688 86.5952C937.236 86.2429 936.891 85.733 936.652 85.0653C936.413 84.3949 936.294 83.5852 936.294 82.6364C936.294 81.6932 936.413 80.8878 936.652 80.2202C936.893 79.5497 937.24 79.0384 937.692 78.6861C938.146 78.331 938.692 78.1534 939.328 78.1534C939.964 78.1534 940.509 78.331 940.96 78.6861C941.415 79.0384 941.761 79.5497 942 80.2202C942.241 80.8878 942.362 81.6932 942.362 82.6364C942.362 83.5852 942.243 84.3949 942.004 85.0653C941.766 85.733 941.42 86.2429 940.969 86.5952C940.517 86.9446 939.97 87.1193 939.328 87.1193ZM939.328 86.1818C939.964 86.1818 940.459 85.875 940.811 85.2614C941.163 84.6477 941.339 83.7727 941.339 82.6364C941.339 81.8807 941.259 81.2372 941.097 80.706C940.938 80.1747 940.707 79.7699 940.406 79.4915C940.108 79.2131 939.749 79.0739 939.328 79.0739C938.697 79.0739 938.205 79.3849 937.849 80.0071C937.494 80.6264 937.317 81.5028 937.317 82.6364C937.317 83.392 937.396 84.0341 937.555 84.5625C937.714 85.0909 937.943 85.4929 938.241 85.7685C938.543 86.044 938.905 86.1818 939.328 86.1818Z" fill="black" />
  <path id="10_2" opacity="0.6" d="M933.972 78.2727V87H932.915V79.3807H932.864L930.733 80.7955V79.7216L932.915 78.2727H933.972ZM939.328 87.1193C938.686 87.1193 938.139 86.9446 937.688 86.5952C937.236 86.2429 936.891 85.733 936.652 85.0653C936.413 84.3949 936.294 83.5852 936.294 82.6364C936.294 81.6932 936.413 80.8878 936.652 80.2202C936.893 79.5497 937.24 79.0384 937.692 78.6861C938.146 78.331 938.692 78.1534 939.328 78.1534C939.964 78.1534 940.509 78.331 940.96 78.6861C941.415 79.0384 941.761 79.5497 942 80.2202C942.241 80.8878 942.362 81.6932 942.362 82.6364C942.362 83.5852 942.243 84.3949 942.004 85.0653C941.766 85.733 941.42 86.2429 940.969 86.5952C940.517 86.9446 939.97 87.1193 939.328 87.1193ZM939.328 86.1818C939.964 86.1818 940.459 85.875 940.811 85.2614C941.163 84.6477 941.339 83.7727 941.339 82.6364C941.339 81.8807 941.259 81.2372 941.097 80.706C940.938 80.1747 940.707 79.7699 940.406 79.4915C940.108 79.2131 939.749 79.0739 939.328 79.0739C938.697 79.0739 938.205 79.3849 937.849 80.0071C937.494 80.6264 937.317 81.5028 937.317 82.6364C937.317 83.392 937.396 84.0341 937.555 84.5625C937.714 85.0909 937.943 85.4929 938.241 85.7685C938.543 86.044 938.905 86.1818 939.328 86.1818Z" fill="black" />
  <path id="10_3" opacity="0.6" d="M1003.06 146.297V155.024H1002V147.405H1001.95L999.82 148.82V147.746L1002 146.297H1003.06ZM1008.42 155.144C1007.77 155.144 1007.23 154.969 1006.77 154.619C1006.32 154.267 1005.98 153.757 1005.74 153.09C1005.5 152.419 1005.38 151.61 1005.38 150.661C1005.38 149.718 1005.5 148.912 1005.74 148.244C1005.98 147.574 1006.33 147.063 1006.78 146.71C1007.23 146.355 1007.78 146.178 1008.42 146.178C1009.05 146.178 1009.6 146.355 1010.05 146.71C1010.5 147.063 1010.85 147.574 1011.09 148.244C1011.33 148.912 1011.45 149.718 1011.45 150.661C1011.45 151.61 1011.33 152.419 1011.09 153.09C1010.85 153.757 1010.51 154.267 1010.06 154.619C1009.6 154.969 1009.06 155.144 1008.42 155.144ZM1008.42 154.206C1009.05 154.206 1009.55 153.899 1009.9 153.286C1010.25 152.672 1010.43 151.797 1010.43 150.661C1010.43 149.905 1010.35 149.262 1010.18 148.73C1010.02 148.199 1009.79 147.794 1009.49 147.516C1009.2 147.237 1008.84 147.098 1008.42 147.098C1007.78 147.098 1007.29 147.409 1006.94 148.031C1006.58 148.651 1006.4 149.527 1006.4 150.661C1006.4 151.416 1006.48 152.058 1006.64 152.587C1006.8 153.115 1007.03 153.517 1007.33 153.793C1007.63 154.068 1007.99 154.206 1008.42 154.206Z" fill="black" />
  <path id="10_4" opacity="0.6" d="M1073.97 202.273V211H1072.91V203.381H1072.86L1070.73 204.795V203.722L1072.91 202.273H1073.97ZM1079.33 211.119C1078.69 211.119 1078.14 210.945 1077.69 210.595C1077.24 210.243 1076.89 209.733 1076.65 209.065C1076.41 208.395 1076.29 207.585 1076.29 206.636C1076.29 205.693 1076.41 204.888 1076.65 204.22C1076.89 203.55 1077.24 203.038 1077.69 202.686C1078.15 202.331 1078.69 202.153 1079.33 202.153C1079.96 202.153 1080.51 202.331 1080.96 202.686C1081.41 203.038 1081.76 203.55 1082 204.22C1082.24 204.888 1082.36 205.693 1082.36 206.636C1082.36 207.585 1082.24 208.395 1082 209.065C1081.77 209.733 1081.42 210.243 1080.97 210.595C1080.52 210.945 1079.97 211.119 1079.33 211.119ZM1079.33 210.182C1079.96 210.182 1080.46 209.875 1080.81 209.261C1081.16 208.648 1081.34 207.773 1081.34 206.636C1081.34 205.881 1081.26 205.237 1081.1 204.706C1080.94 204.175 1080.71 203.77 1080.41 203.491C1080.11 203.213 1079.75 203.074 1079.33 203.074C1078.7 203.074 1078.2 203.385 1077.85 204.007C1077.49 204.626 1077.32 205.503 1077.32 206.636C1077.32 207.392 1077.4 208.034 1077.56 208.562C1077.71 209.091 1077.94 209.493 1078.24 209.768C1078.54 210.044 1078.9 210.182 1079.33 210.182Z" fill="black" />
  <path id="10_5" opacity="0.6" d="M1143.97 266.273V275H1142.91V267.381H1142.86L1140.73 268.795V267.722L1142.91 266.273H1143.97ZM1149.33 275.119C1148.69 275.119 1148.14 274.945 1147.69 274.595C1147.24 274.243 1146.89 273.733 1146.65 273.065C1146.41 272.395 1146.29 271.585 1146.29 270.636C1146.29 269.693 1146.41 268.888 1146.65 268.22C1146.89 267.55 1147.24 267.038 1147.69 266.686C1148.15 266.331 1148.69 266.153 1149.33 266.153C1149.96 266.153 1150.51 266.331 1150.96 266.686C1151.41 267.038 1151.76 267.55 1152 268.22C1152.24 268.888 1152.36 269.693 1152.36 270.636C1152.36 271.585 1152.24 272.395 1152 273.065C1151.77 273.733 1151.42 274.243 1150.97 274.595C1150.52 274.945 1149.97 275.119 1149.33 275.119ZM1149.33 274.182C1149.96 274.182 1150.46 273.875 1150.81 273.261C1151.16 272.648 1151.34 271.773 1151.34 270.636C1151.34 269.881 1151.26 269.237 1151.1 268.706C1150.94 268.175 1150.71 267.77 1150.41 267.491C1150.11 267.213 1149.75 267.074 1149.33 267.074C1148.7 267.074 1148.2 267.385 1147.85 268.007C1147.49 268.626 1147.32 269.503 1147.32 270.636C1147.32 271.392 1147.4 272.034 1147.56 272.562C1147.71 273.091 1147.94 273.493 1148.24 273.768C1148.54 274.044 1148.9 274.182 1149.33 274.182Z" fill="black" />
  <path id="12" opacity="0.6" d="M986.972 590.273V599H985.915V591.381H985.864L983.733 592.795V591.722L985.915 590.273H986.972ZM989.482 599V598.233L992.362 595.08C992.7 594.71 992.979 594.389 993.197 594.116C993.416 593.841 993.578 593.582 993.683 593.341C993.791 593.097 993.845 592.841 993.845 592.574C993.845 592.267 993.771 592.001 993.624 591.777C993.479 591.553 993.28 591.379 993.027 591.257C992.774 591.135 992.49 591.074 992.175 591.074C991.839 591.074 991.547 591.143 991.297 591.283C991.05 591.419 990.858 591.611 990.722 591.858C990.588 592.105 990.521 592.395 990.521 592.727H989.516C989.516 592.216 989.634 591.767 989.869 591.381C990.105 590.994 990.426 590.693 990.832 590.477C991.241 590.261 991.7 590.153 992.209 590.153C992.72 590.153 993.173 590.261 993.568 590.477C993.963 590.693 994.273 590.984 994.497 591.351C994.722 591.717 994.834 592.125 994.834 592.574C994.834 592.895 994.776 593.209 994.659 593.516C994.545 593.82 994.347 594.159 994.062 594.534C993.781 594.906 993.391 595.361 992.891 595.898L990.93 597.994V598.062H994.987V599H989.482Z" fill="black" />
  <path id="12_2" opacity="0.6" d="M986.972 706.273V715H985.915V707.381H985.864L983.733 708.795V707.722L985.915 706.273H986.972ZM989.482 715V714.233L992.362 711.08C992.7 710.71 992.979 710.389 993.197 710.116C993.416 709.841 993.578 709.582 993.683 709.341C993.791 709.097 993.845 708.841 993.845 708.574C993.845 708.267 993.771 708.001 993.624 707.777C993.479 707.553 993.28 707.379 993.027 707.257C992.774 707.135 992.49 707.074 992.175 707.074C991.839 707.074 991.547 707.143 991.297 707.283C991.05 707.419 990.858 707.611 990.722 707.858C990.588 708.105 990.521 708.395 990.521 708.727H989.516C989.516 708.216 989.634 707.767 989.869 707.381C990.105 706.994 990.426 706.693 990.832 706.477C991.241 706.261 991.7 706.153 992.209 706.153C992.72 706.153 993.173 706.261 993.568 706.477C993.963 706.693 994.273 706.984 994.497 707.351C994.722 707.717 994.834 708.125 994.834 708.574C994.834 708.895 994.776 709.209 994.659 709.516C994.545 709.82 994.347 710.159 994.062 710.534C993.781 710.906 993.391 711.361 992.891 711.898L990.93 713.994V714.062H994.987V715H989.482Z" fill="black" />
  <path id="10_6" opacity="0.6" d="M756.972 394.273V403H755.915V395.381H755.864L753.733 396.795V395.722L755.915 394.273H756.972ZM762.328 403.119C761.686 403.119 761.139 402.945 760.688 402.595C760.236 402.243 759.891 401.733 759.652 401.065C759.413 400.395 759.294 399.585 759.294 398.636C759.294 397.693 759.413 396.888 759.652 396.22C759.893 395.55 760.24 395.038 760.692 394.686C761.146 394.331 761.692 394.153 762.328 394.153C762.964 394.153 763.509 394.331 763.96 394.686C764.415 395.038 764.761 395.55 765 396.22C765.241 396.888 765.362 397.693 765.362 398.636C765.362 399.585 765.243 400.395 765.004 401.065C764.766 401.733 764.42 402.243 763.969 402.595C763.517 402.945 762.97 403.119 762.328 403.119ZM762.328 402.182C762.964 402.182 763.459 401.875 763.811 401.261C764.163 400.648 764.339 399.773 764.339 398.636C764.339 397.881 764.259 397.237 764.097 396.706C763.938 396.175 763.707 395.77 763.406 395.491C763.108 395.213 762.749 395.074 762.328 395.074C761.697 395.074 761.205 395.385 760.849 396.007C760.494 396.626 760.317 397.503 760.317 398.636C760.317 399.392 760.396 400.034 760.555 400.562C760.714 401.091 760.943 401.493 761.241 401.768C761.543 402.044 761.905 402.182 762.328 402.182Z" fill="black" />
  <path id="6_5" opacity="0.6" d="M845.801 487.119C845.443 487.114 845.085 487.045 844.727 486.915C844.369 486.784 844.043 486.564 843.747 486.254C843.452 485.942 843.214 485.52 843.036 484.989C842.857 484.455 842.767 483.784 842.767 482.977C842.767 482.205 842.839 481.52 842.984 480.923C843.129 480.324 843.339 479.82 843.615 479.411C843.891 478.999 844.223 478.686 844.612 478.473C845.004 478.26 845.446 478.153 845.938 478.153C846.426 478.153 846.861 478.251 847.241 478.447C847.625 478.641 847.938 478.911 848.179 479.257C848.42 479.604 848.577 480.003 848.648 480.455H847.608C847.511 480.062 847.324 479.737 847.045 479.479C846.767 479.22 846.398 479.091 845.938 479.091C845.261 479.091 844.729 479.385 844.339 479.973C843.953 480.561 843.759 481.386 843.756 482.449H843.824C843.983 482.207 844.172 482.001 844.391 481.831C844.612 481.658 844.857 481.524 845.124 481.43C845.391 481.337 845.673 481.29 845.972 481.29C846.472 481.29 846.929 481.415 847.344 481.665C847.759 481.912 848.091 482.254 848.341 482.692C848.591 483.126 848.716 483.625 848.716 484.188C848.716 484.727 848.595 485.222 848.354 485.67C848.112 486.116 847.773 486.472 847.335 486.736C846.901 486.997 846.389 487.125 845.801 487.119ZM845.801 486.182C846.159 486.182 846.48 486.092 846.764 485.913C847.051 485.734 847.277 485.494 847.442 485.193C847.609 484.892 847.693 484.557 847.693 484.188C847.693 483.827 847.612 483.499 847.45 483.203C847.291 482.905 847.071 482.668 846.79 482.491C846.511 482.315 846.193 482.227 845.835 482.227C845.565 482.227 845.314 482.281 845.081 482.389C844.848 482.494 844.643 482.639 844.467 482.824C844.294 483.009 844.158 483.22 844.058 483.459C843.959 483.695 843.909 483.943 843.909 484.205C843.909 484.551 843.99 484.875 844.152 485.176C844.317 485.477 844.541 485.72 844.825 485.905C845.112 486.089 845.438 486.182 845.801 486.182Z" fill="black" />
  <path id="Fensterfront" d="M413.114 36V18.5455H423.58V20.4205H415.227V26.3182H422.795V28.1932H415.227V36H413.114ZM431.455 36.2727C430.193 36.2727 429.105 35.9943 428.19 35.4375C427.281 34.875 426.58 34.0909 426.085 33.0852C425.597 32.0739 425.352 30.8977 425.352 29.5568C425.352 28.2159 425.597 27.0341 426.085 26.0114C426.58 24.983 427.267 24.1818 428.148 23.608C429.034 23.0284 430.068 22.7386 431.25 22.7386C431.932 22.7386 432.605 22.8523 433.27 23.0795C433.935 23.3068 434.54 23.6761 435.085 24.1875C435.631 24.6932 436.065 25.3636 436.389 26.1989C436.713 27.0341 436.875 28.0625 436.875 29.2841V30.1364H426.784V28.3977H434.83C434.83 27.6591 434.682 27 434.386 26.4205C434.097 25.8409 433.682 25.3835 433.142 25.0483C432.608 24.7131 431.977 24.5455 431.25 24.5455C430.449 24.5455 429.756 24.7443 429.17 25.142C428.591 25.5341 428.145 26.0455 427.832 26.6761C427.52 27.3068 427.364 27.983 427.364 28.7045V29.8636C427.364 30.8523 427.534 31.6903 427.875 32.3778C428.222 33.0597 428.702 33.5795 429.315 33.9375C429.929 34.2898 430.642 34.4659 431.455 34.4659C431.983 34.4659 432.46 34.392 432.886 34.2443C433.318 34.0909 433.69 33.8636 434.003 33.5625C434.315 33.2557 434.557 32.875 434.727 32.4205L436.67 32.9659C436.466 33.625 436.122 34.2045 435.639 34.7045C435.156 35.1989 434.56 35.5852 433.849 35.8636C433.139 36.1364 432.341 36.2727 431.455 36.2727ZM441.946 28.125V36H439.935V22.9091H441.878V24.9545H442.048C442.355 24.2898 442.821 23.7557 443.446 23.3523C444.071 22.9432 444.878 22.7386 445.866 22.7386C446.753 22.7386 447.528 22.9205 448.193 23.2841C448.858 23.642 449.375 24.1875 449.744 24.9205C450.114 25.6477 450.298 26.5682 450.298 27.6818V36H448.287V27.8182C448.287 26.7898 448.02 25.9886 447.486 25.4148C446.952 24.8352 446.219 24.5455 445.287 24.5455C444.645 24.5455 444.071 24.6847 443.565 24.9631C443.065 25.2415 442.67 25.6477 442.381 26.1818C442.091 26.7159 441.946 27.3636 441.946 28.125ZM463.246 25.8409L461.44 26.3523C461.326 26.0511 461.158 25.7585 460.937 25.4744C460.721 25.1847 460.425 24.946 460.05 24.7585C459.675 24.571 459.195 24.4773 458.61 24.4773C457.809 24.4773 457.141 24.6619 456.607 25.0312C456.079 25.3949 455.815 25.858 455.815 26.4205C455.815 26.9205 455.996 27.3153 456.36 27.6051C456.724 27.8949 457.292 28.1364 458.065 28.3295L460.008 28.8068C461.178 29.0909 462.05 29.5256 462.624 30.1108C463.198 30.6903 463.485 31.4375 463.485 32.3523C463.485 33.1023 463.269 33.7727 462.837 34.3636C462.411 34.9545 461.815 35.4205 461.048 35.7614C460.281 36.1023 459.388 36.2727 458.371 36.2727C457.036 36.2727 455.931 35.983 455.056 35.4034C454.181 34.8239 453.627 33.9773 453.394 32.8636L455.303 32.3864C455.485 33.0909 455.829 33.6193 456.335 33.9716C456.846 34.3239 457.513 34.5 458.337 34.5C459.275 34.5 460.019 34.3011 460.57 33.9034C461.127 33.5 461.406 33.017 461.406 32.4545C461.406 32 461.246 31.6193 460.928 31.3125C460.61 31 460.121 30.767 459.462 30.6136L457.281 30.1023C456.082 29.8182 455.201 29.3778 454.638 28.7812C454.082 28.179 453.803 27.4261 453.803 26.5227C453.803 25.7841 454.011 25.1307 454.425 24.5625C454.846 23.9943 455.417 23.5483 456.138 23.2244C456.866 22.9006 457.69 22.7386 458.61 22.7386C459.906 22.7386 460.923 23.0227 461.661 23.5909C462.406 24.1591 462.934 24.9091 463.246 25.8409ZM472.206 22.9091V24.6136H465.422V22.9091H472.206ZM467.399 19.7727H469.411V32.25C469.411 32.8182 469.493 33.2443 469.658 33.5284C469.828 33.8068 470.044 33.9943 470.305 34.0909C470.572 34.1818 470.854 34.2273 471.149 34.2273C471.371 34.2273 471.553 34.2159 471.695 34.1932C471.837 34.1648 471.95 34.142 472.036 34.125L472.445 35.9318C472.308 35.983 472.118 36.0341 471.874 36.0852C471.629 36.142 471.32 36.1705 470.945 36.1705C470.376 36.1705 469.82 36.0483 469.274 35.804C468.734 35.5597 468.286 35.1875 467.928 34.6875C467.575 34.1875 467.399 33.5568 467.399 32.7955V19.7727ZM480.58 36.2727C479.318 36.2727 478.23 35.9943 477.315 35.4375C476.406 34.875 475.705 34.0909 475.21 33.0852C474.722 32.0739 474.477 30.8977 474.477 29.5568C474.477 28.2159 474.722 27.0341 475.21 26.0114C475.705 24.983 476.392 24.1818 477.273 23.608C478.159 23.0284 479.193 22.7386 480.375 22.7386C481.057 22.7386 481.73 22.8523 482.395 23.0795C483.06 23.3068 483.665 23.6761 484.21 24.1875C484.756 24.6932 485.19 25.3636 485.514 26.1989C485.838 27.0341 486 28.0625 486 29.2841V30.1364H475.909V28.3977H483.955C483.955 27.6591 483.807 27 483.511 26.4205C483.222 25.8409 482.807 25.3835 482.267 25.0483C481.733 24.7131 481.102 24.5455 480.375 24.5455C479.574 24.5455 478.881 24.7443 478.295 25.142C477.716 25.5341 477.27 26.0455 476.957 26.6761C476.645 27.3068 476.489 27.983 476.489 28.7045V29.8636C476.489 30.8523 476.659 31.6903 477 32.3778C477.347 33.0597 477.827 33.5795 478.44 33.9375C479.054 34.2898 479.767 34.4659 480.58 34.4659C481.108 34.4659 481.585 34.392 482.011 34.2443C482.443 34.0909 482.815 33.8636 483.128 33.5625C483.44 33.2557 483.682 32.875 483.852 32.4205L485.795 32.9659C485.591 33.625 485.247 34.2045 484.764 34.7045C484.281 35.1989 483.685 35.5852 482.974 35.8636C482.264 36.1364 481.466 36.2727 480.58 36.2727ZM489.06 36V22.9091H491.003V24.8864H491.139C491.378 24.2386 491.81 23.7131 492.435 23.3097C493.06 22.9062 493.764 22.7045 494.548 22.7045C494.696 22.7045 494.881 22.7074 495.102 22.7131C495.324 22.7187 495.491 22.7273 495.605 22.7386V24.7841C495.537 24.767 495.381 24.7415 495.136 24.7074C494.898 24.6676 494.645 24.6477 494.378 24.6477C493.741 24.6477 493.173 24.7812 492.673 25.0483C492.179 25.3097 491.787 25.6733 491.497 26.1392C491.213 26.5994 491.071 27.125 491.071 27.7159V36H489.06ZM504.639 22.9091V24.6136H497.582V22.9091H504.639ZM499.696 36V21.1023C499.696 20.3523 499.872 19.7273 500.224 19.2273C500.577 18.7273 501.034 18.3523 501.597 18.1023C502.159 17.8523 502.753 17.7273 503.378 17.7273C503.872 17.7273 504.276 17.767 504.588 17.8466C504.901 17.9261 505.134 18 505.287 18.0682L504.707 19.8068C504.605 19.7727 504.463 19.7301 504.281 19.679C504.105 19.6278 503.872 19.6023 503.582 19.6023C502.918 19.6023 502.438 19.7699 502.142 20.1051C501.852 20.4403 501.707 20.9318 501.707 21.5795V36H499.696ZM507.458 36V22.9091H509.401V24.8864H509.538C509.776 24.2386 510.208 23.7131 510.833 23.3097C511.458 22.9062 512.163 22.7045 512.947 22.7045C513.094 22.7045 513.279 22.7074 513.501 22.7131C513.722 22.7187 513.89 22.7273 514.004 22.7386V24.7841C513.935 24.767 513.779 24.7415 513.535 24.7074C513.296 24.6676 513.043 24.6477 512.776 24.6477C512.14 24.6477 511.572 24.7812 511.072 25.0483C510.577 25.3097 510.185 25.6733 509.896 26.1392C509.612 26.5994 509.469 27.125 509.469 27.7159V36H507.458ZM521.308 36.2727C520.126 36.2727 519.089 35.9915 518.197 35.429C517.31 34.8665 516.617 34.0795 516.117 33.0682C515.623 32.0568 515.376 30.875 515.376 29.5227C515.376 28.1591 515.623 26.9687 516.117 25.9517C516.617 24.9347 517.31 24.1449 518.197 23.5824C519.089 23.0199 520.126 22.7386 521.308 22.7386C522.489 22.7386 523.523 23.0199 524.41 23.5824C525.302 24.1449 525.995 24.9347 526.489 25.9517C526.989 26.9687 527.239 28.1591 527.239 29.5227C527.239 30.875 526.989 32.0568 526.489 33.0682C525.995 34.0795 525.302 34.8665 524.41 35.429C523.523 35.9915 522.489 36.2727 521.308 36.2727ZM521.308 34.4659C522.205 34.4659 522.944 34.2358 523.523 33.7756C524.103 33.3153 524.532 32.7102 524.81 31.9602C525.089 31.2102 525.228 30.3977 525.228 29.5227C525.228 28.6477 525.089 27.8324 524.81 27.0767C524.532 26.321 524.103 25.7102 523.523 25.2443C522.944 24.7784 522.205 24.5455 521.308 24.5455C520.41 24.5455 519.671 24.7784 519.092 25.2443C518.512 25.7102 518.083 26.321 517.805 27.0767C517.526 27.8324 517.387 28.6477 517.387 29.5227C517.387 30.3977 517.526 31.2102 517.805 31.9602C518.083 32.7102 518.512 33.3153 519.092 33.7756C519.671 34.2358 520.41 34.4659 521.308 34.4659ZM532.321 28.125V36H530.31V22.9091H532.253V24.9545H532.423C532.73 24.2898 533.196 23.7557 533.821 23.3523C534.446 22.9432 535.253 22.7386 536.241 22.7386C537.128 22.7386 537.903 22.9205 538.568 23.2841C539.233 23.642 539.75 24.1875 540.119 24.9205C540.489 25.6477 540.673 26.5682 540.673 27.6818V36H538.662V27.8182C538.662 26.7898 538.395 25.9886 537.861 25.4148C537.327 24.8352 536.594 24.5455 535.662 24.5455C535.02 24.5455 534.446 24.6847 533.94 24.9631C533.44 25.2415 533.045 25.6477 532.756 26.1818C532.466 26.7159 532.321 27.3636 532.321 28.125ZM550.042 22.9091V24.6136H543.258V22.9091H550.042ZM545.235 19.7727H547.246V32.25C547.246 32.8182 547.329 33.2443 547.494 33.5284C547.664 33.8068 547.88 33.9943 548.141 34.0909C548.408 34.1818 548.69 34.2273 548.985 34.2273C549.207 34.2273 549.388 34.2159 549.531 34.1932C549.673 34.1648 549.786 34.142 549.871 34.125L550.281 35.9318C550.144 35.983 549.954 36.0341 549.71 36.0852C549.465 36.142 549.156 36.1705 548.781 36.1705C548.212 36.1705 547.656 36.0483 547.11 35.804C546.57 35.5597 546.121 35.1875 545.763 34.6875C545.411 34.1875 545.235 33.5568 545.235 32.7955V19.7727Z" fill="black" /></g>
</svg>