<svg width="1280" height="904" viewBox="0 0 1280 904" fill="none" xmlns="http://www.w3.org/2000/svg">
<g id="Frame 1">
<rect width="1280" height="904" fill="white"/>
<rect id="Tisch 15" x="569" y="383" width="160" height="51" fill="#D9D9D9"/>
<rect id="Tisch 14" x="569" y="469" width="160" height="51" fill="#D9D9D9"/>
<rect id="Tisch 13" x="544" y="555" width="185" height="51" fill="#D9D9D9"/>
<rect id="Tisch 12" x="569" y="634" width="160" height="51" fill="#D9D9D9"/>
<rect id="Tisch 11" x="569" y="720" width="160" height="51" fill="#D9D9D9"/>
<rect id="Tisch 10" x="569" y="799" width="160" height="51" fill="#D9D9D9"/>
<path id="12" d="M572.972 386.273V395H571.915V387.381H571.864L569.733 388.795V387.722L571.915 386.273H572.972ZM575.482 395V394.233L578.362 391.08C578.7 390.71 578.979 390.389 579.197 390.116C579.416 389.841 579.578 389.582 579.683 389.341C579.791 389.097 579.845 388.841 579.845 388.574C579.845 388.267 579.771 388.001 579.624 387.777C579.479 387.553 579.28 387.379 579.027 387.257C578.774 387.135 578.49 387.074 578.175 387.074C577.839 387.074 577.547 387.143 577.297 387.283C577.05 387.419 576.858 387.611 576.722 387.858C576.588 388.105 576.521 388.395 576.521 388.727H575.516C575.516 388.216 575.634 387.767 575.869 387.381C576.105 386.994 576.426 386.693 576.832 386.477C577.241 386.261 577.7 386.153 578.209 386.153C578.72 386.153 579.173 386.261 579.568 386.477C579.963 386.693 580.273 386.984 580.497 387.351C580.722 387.717 580.834 388.125 580.834 388.574C580.834 388.895 580.776 389.209 580.659 389.516C580.545 389.82 580.347 390.159 580.062 390.534C579.781 390.906 579.391 391.361 578.891 391.898L576.93 393.994V394.062H580.987V395H575.482Z" fill="black"/>
<path id="12_2" d="M572.972 472.273V481H571.915V473.381H571.864L569.733 474.795V473.722L571.915 472.273H572.972ZM575.482 481V480.233L578.362 477.08C578.7 476.71 578.979 476.389 579.197 476.116C579.416 475.841 579.578 475.582 579.683 475.341C579.791 475.097 579.845 474.841 579.845 474.574C579.845 474.267 579.771 474.001 579.624 473.777C579.479 473.553 579.28 473.379 579.027 473.257C578.774 473.135 578.49 473.074 578.175 473.074C577.839 473.074 577.547 473.143 577.297 473.283C577.05 473.419 576.858 473.611 576.722 473.858C576.588 474.105 576.521 474.395 576.521 474.727H575.516C575.516 474.216 575.634 473.767 575.869 473.381C576.105 472.994 576.426 472.693 576.832 472.477C577.241 472.261 577.7 472.153 578.209 472.153C578.72 472.153 579.173 472.261 579.568 472.477C579.963 472.693 580.273 472.984 580.497 473.351C580.722 473.717 580.834 474.125 580.834 474.574C580.834 474.895 580.776 475.209 580.659 475.516C580.545 475.82 580.347 476.159 580.062 476.534C579.781 476.906 579.391 477.361 578.891 477.898L576.93 479.994V480.062H580.987V481H575.482Z" fill="black"/>
<path id="12_3" d="M572.972 637.273V646H571.915V638.381H571.864L569.733 639.795V638.722L571.915 637.273H572.972ZM575.482 646V645.233L578.362 642.08C578.7 641.71 578.979 641.389 579.197 641.116C579.416 640.841 579.578 640.582 579.683 640.341C579.791 640.097 579.845 639.841 579.845 639.574C579.845 639.267 579.771 639.001 579.624 638.777C579.479 638.553 579.28 638.379 579.027 638.257C578.774 638.135 578.49 638.074 578.175 638.074C577.839 638.074 577.547 638.143 577.297 638.283C577.05 638.419 576.858 638.611 576.722 638.858C576.588 639.105 576.521 639.395 576.521 639.727H575.516C575.516 639.216 575.634 638.767 575.869 638.381C576.105 637.994 576.426 637.693 576.832 637.477C577.241 637.261 577.7 637.153 578.209 637.153C578.72 637.153 579.173 637.261 579.568 637.477C579.963 637.693 580.273 637.984 580.497 638.351C580.722 638.717 580.834 639.125 580.834 639.574C580.834 639.895 580.776 640.209 580.659 640.516C580.545 640.82 580.347 641.159 580.062 641.534C579.781 641.906 579.391 642.361 578.891 642.898L576.93 644.994V645.062H580.987V646H575.482Z" fill="black"/>
<path id="12_4" d="M572.972 723.273V732H571.915V724.381H571.864L569.733 725.795V724.722L571.915 723.273H572.972ZM575.482 732V731.233L578.362 728.08C578.7 727.71 578.979 727.389 579.197 727.116C579.416 726.841 579.578 726.582 579.683 726.341C579.791 726.097 579.845 725.841 579.845 725.574C579.845 725.267 579.771 725.001 579.624 724.777C579.479 724.553 579.28 724.379 579.027 724.257C578.774 724.135 578.49 724.074 578.175 724.074C577.839 724.074 577.547 724.143 577.297 724.283C577.05 724.419 576.858 724.611 576.722 724.858C576.588 725.105 576.521 725.395 576.521 725.727H575.516C575.516 725.216 575.634 724.767 575.869 724.381C576.105 723.994 576.426 723.693 576.832 723.477C577.241 723.261 577.7 723.153 578.209 723.153C578.72 723.153 579.173 723.261 579.568 723.477C579.963 723.693 580.273 723.984 580.497 724.351C580.722 724.717 580.834 725.125 580.834 725.574C580.834 725.895 580.776 726.209 580.659 726.516C580.545 726.82 580.347 727.159 580.062 727.534C579.781 727.906 579.391 728.361 578.891 728.898L576.93 730.994V731.062H580.987V732H575.482Z" fill="black"/>
<path id="12_5" d="M572.972 802.273V811H571.915V803.381H571.864L569.733 804.795V803.722L571.915 802.273H572.972ZM575.482 811V810.233L578.362 807.08C578.7 806.71 578.979 806.389 579.197 806.116C579.416 805.841 579.578 805.582 579.683 805.341C579.791 805.097 579.845 804.841 579.845 804.574C579.845 804.267 579.771 804.001 579.624 803.777C579.479 803.553 579.28 803.379 579.027 803.257C578.774 803.135 578.49 803.074 578.175 803.074C577.839 803.074 577.547 803.143 577.297 803.283C577.05 803.419 576.858 803.611 576.722 803.858C576.588 804.105 576.521 804.395 576.521 804.727H575.516C575.516 804.216 575.634 803.767 575.869 803.381C576.105 802.994 576.426 802.693 576.832 802.477C577.241 802.261 577.7 802.153 578.209 802.153C578.72 802.153 579.173 802.261 579.568 802.477C579.963 802.693 580.273 802.984 580.497 803.351C580.722 803.717 580.834 804.125 580.834 804.574C580.834 804.895 580.776 805.209 580.659 805.516C580.545 805.82 580.347 806.159 580.062 806.534C579.781 806.906 579.391 807.361 578.891 807.898L576.93 809.994V810.062H580.987V811H575.482Z" fill="black"/>
<path id="16" d="M547.972 558.273V567H546.915V559.381H546.864L544.733 560.795V559.722L546.915 558.273H547.972ZM553.379 567.119C553.021 567.114 552.663 567.045 552.305 566.915C551.947 566.784 551.621 566.564 551.325 566.254C551.03 565.942 550.793 565.52 550.614 564.989C550.435 564.455 550.345 563.784 550.345 562.977C550.345 562.205 550.418 561.52 550.562 560.923C550.707 560.324 550.918 559.82 551.193 559.411C551.469 558.999 551.801 558.686 552.19 558.473C552.582 558.26 553.024 558.153 553.516 558.153C554.004 558.153 554.439 558.251 554.82 558.447C555.203 558.641 555.516 558.911 555.757 559.257C555.999 559.604 556.155 560.003 556.226 560.455H555.186C555.089 560.062 554.902 559.737 554.624 559.479C554.345 559.22 553.976 559.091 553.516 559.091C552.839 559.091 552.307 559.385 551.918 559.973C551.531 560.561 551.337 561.386 551.334 562.449H551.402C551.561 562.207 551.75 562.001 551.969 561.831C552.19 561.658 552.435 561.524 552.702 561.43C552.969 561.337 553.251 561.29 553.55 561.29C554.05 561.29 554.507 561.415 554.922 561.665C555.337 561.912 555.669 562.254 555.919 562.692C556.169 563.126 556.294 563.625 556.294 564.188C556.294 564.727 556.173 565.222 555.932 565.67C555.69 566.116 555.351 566.472 554.913 566.736C554.479 566.997 553.967 567.125 553.379 567.119ZM553.379 566.182C553.737 566.182 554.058 566.092 554.342 565.913C554.629 565.734 554.855 565.494 555.02 565.193C555.188 564.892 555.271 564.557 555.271 564.188C555.271 563.827 555.19 563.499 555.028 563.203C554.869 562.905 554.649 562.668 554.368 562.491C554.089 562.315 553.771 562.227 553.413 562.227C553.143 562.227 552.892 562.281 552.659 562.389C552.426 562.494 552.222 562.639 552.045 562.824C551.872 563.009 551.736 563.22 551.636 563.459C551.537 563.695 551.487 563.943 551.487 564.205C551.487 564.551 551.568 564.875 551.73 565.176C551.895 565.477 552.119 565.72 552.403 565.905C552.69 566.089 553.016 566.182 553.379 566.182Z" fill="black"/>
<path id="Ausgang" d="M526.83 885H524.614L531.023 867.545H533.205L539.614 885H537.398L532.182 870.307H532.045L526.83 885ZM527.648 878.182H536.58V880.057H527.648V878.182ZM550.31 879.648V871.909H552.321V885H550.31V882.784H550.173C549.866 883.449 549.389 884.014 548.741 884.48C548.094 884.94 547.276 885.17 546.287 885.17C545.469 885.17 544.741 884.991 544.105 884.634C543.469 884.27 542.969 883.724 542.605 882.997C542.241 882.264 542.06 881.341 542.06 880.227V871.909H544.071V880.091C544.071 881.045 544.338 881.807 544.872 882.375C545.412 882.943 546.099 883.227 546.935 883.227C547.435 883.227 547.943 883.099 548.46 882.844C548.983 882.588 549.42 882.196 549.773 881.668C550.131 881.139 550.31 880.466 550.31 879.648ZM565.278 874.841L563.471 875.352C563.357 875.051 563.19 874.759 562.968 874.474C562.752 874.185 562.457 873.946 562.082 873.759C561.707 873.571 561.227 873.477 560.641 873.477C559.84 873.477 559.173 873.662 558.638 874.031C558.11 874.395 557.846 874.858 557.846 875.42C557.846 875.92 558.028 876.315 558.391 876.605C558.755 876.895 559.323 877.136 560.096 877.33L562.039 877.807C563.21 878.091 564.082 878.526 564.656 879.111C565.229 879.69 565.516 880.437 565.516 881.352C565.516 882.102 565.3 882.773 564.869 883.364C564.442 883.955 563.846 884.42 563.079 884.761C562.312 885.102 561.42 885.273 560.403 885.273C559.067 885.273 557.962 884.983 557.087 884.403C556.212 883.824 555.658 882.977 555.425 881.864L557.335 881.386C557.516 882.091 557.86 882.619 558.366 882.972C558.877 883.324 559.545 883.5 560.369 883.5C561.306 883.5 562.05 883.301 562.602 882.903C563.158 882.5 563.437 882.017 563.437 881.455C563.437 881 563.278 880.619 562.96 880.312C562.641 880 562.153 879.767 561.494 879.614L559.312 879.102C558.113 878.818 557.232 878.378 556.67 877.781C556.113 877.179 555.835 876.426 555.835 875.523C555.835 874.784 556.042 874.131 556.457 873.562C556.877 872.994 557.448 872.548 558.17 872.224C558.897 871.901 559.721 871.739 560.641 871.739C561.937 871.739 562.954 872.023 563.692 872.591C564.437 873.159 564.965 873.909 565.278 874.841ZM573.828 890.182C572.857 890.182 572.021 890.057 571.322 889.807C570.624 889.562 570.041 889.239 569.575 888.835C569.115 888.438 568.749 888.011 568.476 887.557L570.078 886.432C570.26 886.67 570.49 886.943 570.768 887.25C571.047 887.562 571.428 887.832 571.911 888.06C572.399 888.293 573.038 888.409 573.828 888.409C574.885 888.409 575.757 888.153 576.445 887.642C577.132 887.131 577.476 886.33 577.476 885.239V882.58H577.305C577.158 882.818 576.947 883.114 576.675 883.466C576.408 883.812 576.021 884.122 575.516 884.395C575.016 884.662 574.339 884.795 573.487 884.795C572.43 884.795 571.482 884.545 570.641 884.045C569.805 883.545 569.143 882.818 568.655 881.864C568.172 880.909 567.93 879.75 567.93 878.386C567.93 877.045 568.166 875.878 568.638 874.884C569.109 873.884 569.766 873.111 570.607 872.565C571.447 872.014 572.419 871.739 573.521 871.739C574.374 871.739 575.05 871.881 575.55 872.165C576.055 872.443 576.442 872.761 576.709 873.119C576.982 873.472 577.192 873.761 577.339 873.989H577.544V871.909H579.487V885.375C579.487 886.5 579.232 887.415 578.72 888.119C578.214 888.83 577.533 889.349 576.675 889.679C575.822 890.014 574.874 890.182 573.828 890.182ZM573.76 882.989C574.567 882.989 575.249 882.804 575.805 882.435C576.362 882.065 576.786 881.534 577.075 880.841C577.365 880.148 577.51 879.318 577.51 878.352C577.51 877.409 577.368 876.577 577.084 875.855C576.8 875.134 576.379 874.568 575.822 874.159C575.266 873.75 574.578 873.545 573.76 873.545C572.908 873.545 572.197 873.761 571.629 874.193C571.067 874.625 570.643 875.205 570.359 875.932C570.081 876.659 569.942 877.466 569.942 878.352C569.942 879.261 570.084 880.065 570.368 880.764C570.658 881.457 571.084 882.003 571.646 882.401C572.214 882.793 572.919 882.989 573.76 882.989ZM587.021 885.307C586.192 885.307 585.439 885.151 584.763 884.838C584.087 884.52 583.55 884.062 583.152 883.466C582.754 882.864 582.555 882.136 582.555 881.284C582.555 880.534 582.703 879.926 582.999 879.46C583.294 878.989 583.689 878.619 584.183 878.352C584.678 878.085 585.223 877.886 585.82 877.756C586.422 877.619 587.027 877.511 587.635 877.432C588.43 877.33 589.075 877.253 589.57 877.202C590.07 877.145 590.433 877.051 590.661 876.92C590.893 876.79 591.01 876.562 591.01 876.239V876.17C591.01 875.33 590.78 874.676 590.32 874.21C589.865 873.744 589.175 873.511 588.249 873.511C587.288 873.511 586.536 873.722 585.99 874.142C585.445 874.562 585.061 875.011 584.839 875.489L582.93 874.807C583.271 874.011 583.726 873.392 584.294 872.949C584.868 872.5 585.493 872.187 586.169 872.011C586.851 871.83 587.521 871.739 588.18 871.739C588.601 871.739 589.084 871.79 589.629 871.892C590.18 871.989 590.712 872.19 591.223 872.497C591.74 872.804 592.169 873.267 592.51 873.886C592.851 874.506 593.021 875.335 593.021 876.375V885H591.01V883.227H590.908C590.771 883.511 590.544 883.815 590.226 884.139C589.908 884.463 589.484 884.739 588.956 884.966C588.428 885.193 587.783 885.307 587.021 885.307ZM587.328 883.5C588.124 883.5 588.794 883.344 589.339 883.031C589.891 882.719 590.305 882.315 590.584 881.821C590.868 881.327 591.01 880.807 591.01 880.261V878.42C590.925 878.523 590.737 878.616 590.447 878.702C590.163 878.781 589.834 878.852 589.459 878.915C589.089 878.972 588.729 879.023 588.376 879.068C588.03 879.108 587.749 879.142 587.533 879.17C587.01 879.239 586.521 879.349 586.067 879.503C585.618 879.651 585.254 879.875 584.976 880.176C584.703 880.472 584.567 880.875 584.567 881.386C584.567 882.085 584.825 882.614 585.342 882.972C585.865 883.324 586.527 883.5 587.328 883.5ZM598.704 877.125V885H596.692V871.909H598.636V873.955H598.806C599.113 873.29 599.579 872.756 600.204 872.352C600.829 871.943 601.636 871.739 602.624 871.739C603.511 871.739 604.286 871.92 604.951 872.284C605.616 872.642 606.133 873.188 606.502 873.92C606.871 874.648 607.056 875.568 607.056 876.682V885H605.045V876.818C605.045 875.79 604.778 874.989 604.244 874.415C603.71 873.835 602.977 873.545 602.045 873.545C601.403 873.545 600.829 873.685 600.323 873.963C599.823 874.241 599.428 874.648 599.138 875.182C598.849 875.716 598.704 876.364 598.704 877.125ZM616.016 890.182C615.044 890.182 614.209 890.057 613.51 889.807C612.811 889.562 612.229 889.239 611.763 888.835C611.303 888.438 610.936 888.011 610.663 887.557L612.266 886.432C612.447 886.67 612.678 886.943 612.956 887.25C613.234 887.562 613.615 887.832 614.098 888.06C614.587 888.293 615.226 888.409 616.016 888.409C617.072 888.409 617.945 888.153 618.632 887.642C619.32 887.131 619.663 886.33 619.663 885.239V882.58H619.493C619.345 882.818 619.135 883.114 618.862 883.466C618.595 883.812 618.209 884.122 617.703 884.395C617.203 884.662 616.527 884.795 615.675 884.795C614.618 884.795 613.669 884.545 612.828 884.045C611.993 883.545 611.331 882.818 610.842 881.864C610.359 880.909 610.118 879.75 610.118 878.386C610.118 877.045 610.354 875.878 610.825 874.884C611.297 873.884 611.953 873.111 612.794 872.565C613.635 872.014 614.607 871.739 615.709 871.739C616.561 871.739 617.237 871.881 617.737 872.165C618.243 872.443 618.629 872.761 618.896 873.119C619.169 873.472 619.379 873.761 619.527 873.989H619.732V871.909H621.675V885.375C621.675 886.5 621.419 887.415 620.908 888.119C620.402 888.83 619.72 889.349 618.862 889.679C618.01 890.014 617.061 890.182 616.016 890.182ZM615.947 882.989C616.754 882.989 617.436 882.804 617.993 882.435C618.55 882.065 618.973 881.534 619.263 880.841C619.553 880.148 619.697 879.318 619.697 878.352C619.697 877.409 619.555 876.577 619.271 875.855C618.987 875.134 618.567 874.568 618.01 874.159C617.453 873.75 616.766 873.545 615.947 873.545C615.095 873.545 614.385 873.761 613.817 874.193C613.254 874.625 612.831 875.205 612.547 875.932C612.268 876.659 612.129 877.466 612.129 878.352C612.129 879.261 612.271 880.065 612.555 880.764C612.845 881.457 613.271 882.003 613.834 882.401C614.402 882.793 615.107 882.989 615.947 882.989Z" fill="black"/>
<rect id="Tisch 09" x="359" y="387" width="32" height="113" fill="#D9D9D9"/>
<rect id="Tisch 08" x="308" y="387" width="32" height="113" fill="#D9D9D9"/>
<rect id="Tisch 07" x="257" y="387" width="32" height="113" fill="#D9D9D9"/>
<rect id="Tisch 06" x="206" y="387" width="32" height="113" fill="#D9D9D9"/>
<rect id="Tisch 05" x="155" y="387" width="32" height="113" fill="#D9D9D9"/>
<rect id="Tisch 04" x="359" y="264" width="32" height="113" fill="#D9D9D9"/>
<rect id="Tisch 03" x="308" y="264" width="32" height="113" fill="#D9D9D9"/>
<rect id="Tisch 02" x="257" y="264" width="32" height="113" fill="#D9D9D9"/>
<rect id="Tisch 01" x="206" y="264" width="32" height="113" fill="#D9D9D9"/>
<rect id="Tisch 00" x="155" y="264" width="32" height="113" fill="#D9D9D9"/>
<rect id="Tisch 16" x="155" y="125" width="32" height="59" fill="#D9D9D9"/>
<rect id="Tisch 17" x="206" y="125" width="32" height="59" fill="#D9D9D9"/>
<rect id="Tisch 18" x="257" y="125" width="32" height="59" fill="#D9D9D9"/>
<rect id="Tisch 19" x="308" y="125" width="32" height="59" fill="#D9D9D9"/>
<rect id="Tisch 20" x="359" y="125" width="32" height="59" fill="#D9D9D9"/>
<rect id="Barriere 04" x="133" y="310" width="10" height="78" fill="black"/>
<rect id="Barriere 03" x="69" y="113" width="10" height="202" fill="black"/>
<rect id="Barriere 02" x="79" y="113" width="415" height="10" fill="black"/>
<rect id="Barriere 5" x="484" y="123" width="10" height="77" fill="black"/>
<rect id="Barriere 8" x="480" y="227" width="10" height="114" fill="black"/>
<rect id="Barriere 9" x="435" y="342" width="10" height="45" fill="black"/>
<rect id="Barriere 6" x="437" y="166" width="10" height="61" fill="black"/>
<rect id="Barriere 7" x="447" y="217" width="164" height="10" fill="black"/>
<rect id="Barriere 10" x="490" y="331" width="249" height="10" fill="black"/>
<rect id="Barriere 12" x="403" y="633" width="58" height="252" fill="black"/>
<rect id="Barriere 13" x="354" y="588" width="49" height="53" fill="black"/>
<rect id="Barriere 11" x="729" y="341" width="10" height="544" fill="black"/>
<rect id="Barriere 01" x="143" y="377" width="292" height="10" fill="black"/>
<g id="Group 1">
<rect id="Rectangle 19" x="79" y="310" width="54" height="82" fill="black"/>
<rect id="Rectangle 20" x="79" y="315.125" width="54" height="5.125" fill="#5263FF"/>
<rect id="Rectangle 21" x="79" y="325.375" width="54" height="5.125" fill="#5263FF"/>
<rect id="Rectangle 22" x="79" y="335.625" width="54" height="5.125" fill="#5263FF"/>
<rect id="Rectangle 23" x="79" y="345.875" width="54" height="5.125" fill="#5263FF"/>
<rect id="Rectangle 24" x="79" y="356.125" width="54" height="5.125" fill="#5263FF"/>
<rect id="Rectangle 25" x="79" y="366.375" width="54" height="5.125" fill="#5263FF"/>
<rect id="Rectangle 26" x="79" y="376.625" width="54" height="5.125" fill="#5263FF"/>
<rect id="Rectangle 27" x="79" y="386.875" width="54" height="5.125" fill="#5263FF"/>
</g>
<g id="Group 2">
<rect id="Rectangle 19_2" x="447" y="127" width="33" height="73" fill="black"/>
<rect id="Rectangle 20_2" x="447" y="131.562" width="33" height="4.5625" fill="#5263FF"/>
<rect id="Rectangle 21_2" x="447" y="140.688" width="33" height="4.5625" fill="#5263FF"/>
<rect id="Rectangle 22_2" x="447" y="149.812" width="33" height="4.5625" fill="#5263FF"/>
<rect id="Rectangle 23_2" x="447" y="158.938" width="33" height="4.5625" fill="#5263FF"/>
<rect id="Rectangle 24_2" x="447" y="168.062" width="33" height="4.5625" fill="#5263FF"/>
<rect id="Rectangle 25_2" x="447" y="177.188" width="33" height="4.5625" fill="#5263FF"/>
<rect id="Rectangle 26_2" x="447" y="186.312" width="33" height="4.5625" fill="#5263FF"/>
<rect id="Rectangle 27_2" x="447" y="195.438" width="33" height="4.5625" fill="#5263FF"/>
</g>
<g id="Group 4">
<rect id="Rectangle 19_3" x="447" y="268" width="33" height="73" fill="black"/>
<rect id="Rectangle 20_3" x="447" y="272.562" width="33" height="4.5625" fill="#5263FF"/>
<rect id="Rectangle 21_3" x="447" y="281.688" width="33" height="4.5625" fill="#5263FF"/>
<rect id="Rectangle 22_3" x="447" y="290.812" width="33" height="4.5625" fill="#5263FF"/>
<rect id="Rectangle 23_3" x="447" y="299.938" width="33" height="4.5625" fill="#5263FF"/>
<rect id="Rectangle 24_3" x="447" y="309.062" width="33" height="4.5625" fill="#5263FF"/>
<rect id="Rectangle 25_3" x="447" y="318.188" width="33" height="4.5625" fill="#5263FF"/>
<rect id="Rectangle 26_3" x="447" y="327.312" width="33" height="4.5625" fill="#5263FF"/>
<rect id="Rectangle 27_3" x="447" y="336.438" width="33" height="4.5625" fill="#5263FF"/>
</g>
<g id="Group 3">
<rect id="Rectangle 19_4" x="399" y="166" width="39" height="80.9998" transform="rotate(-90 399 166)" fill="black"/>
<rect id="Rectangle 20_4" x="404.062" y="166" width="39" height="5.06249" transform="rotate(-90 404.062 166)" fill="#5263FF"/>
<rect id="Rectangle 21_4" x="414.188" y="166" width="39" height="5.06249" transform="rotate(-90 414.188 166)" fill="#5263FF"/>
<rect id="Rectangle 22_4" x="424.312" y="166" width="39" height="5.06249" transform="rotate(-90 424.312 166)" fill="#5263FF"/>
<rect id="Rectangle 23_4" x="434.438" y="166" width="39" height="5.06249" transform="rotate(-90 434.438 166)" fill="#5263FF"/>
<rect id="Rectangle 24_4" x="444.562" y="166" width="39" height="5.06249" transform="rotate(-90 444.562 166)" fill="#5263FF"/>
<rect id="Rectangle 25_4" x="454.687" y="166" width="39" height="5.06249" transform="rotate(-90 454.687 166)" fill="#5263FF"/>
<rect id="Rectangle 26_4" x="464.812" y="166" width="39" height="5.06249" transform="rotate(-90 464.812 166)" fill="#5263FF"/>
<rect id="Rectangle 27_4" x="474.937" y="166" width="39" height="5.06249" transform="rotate(-90 474.937 166)" fill="#5263FF"/>
</g>
<path id="4" d="M155.699 135.21V134.341L159.534 128.273H160.165V129.619H159.739L156.841 134.205V134.273H162.006V135.21H155.699ZM159.807 137V134.946V134.541V128.273H160.812V137H159.807Z" fill="black"/>
<path id="4_2" d="M206.699 135.21V134.341L210.534 128.273H211.165V129.619H210.739L207.841 134.205V134.273H213.006V135.21H206.699ZM210.807 137V134.946V134.541V128.273H211.812V137H210.807Z" fill="black"/>
<path id="4_3" d="M257.699 135.21V134.341L261.534 128.273H262.165V129.619H261.739L258.841 134.205V134.273H264.006V135.21H257.699ZM261.807 137V134.946V134.541V128.273H262.812V137H261.807Z" fill="black"/>
<path id="4_4" d="M308.699 135.21V134.341L312.534 128.273H313.165V129.619H312.739L309.841 134.205V134.273H315.006V135.21H308.699ZM312.807 137V134.946V134.541V128.273H313.812V137H312.807Z" fill="black"/>
<path id="4_5" d="M359.699 135.21V134.341L363.534 128.273H364.165V129.619H363.739L360.841 134.205V134.273H366.006V135.21H359.699ZM363.807 137V134.946V134.541V128.273H364.812V137H363.807Z" fill="black"/>
<path id="10" d="M158.972 267.273V276H157.915V268.381H157.864L155.733 269.795V268.722L157.915 267.273H158.972ZM164.328 276.119C163.686 276.119 163.139 275.945 162.688 275.595C162.236 275.243 161.891 274.733 161.652 274.065C161.413 273.395 161.294 272.585 161.294 271.636C161.294 270.693 161.413 269.888 161.652 269.22C161.893 268.55 162.24 268.038 162.692 267.686C163.146 267.331 163.692 267.153 164.328 267.153C164.964 267.153 165.509 267.331 165.96 267.686C166.415 268.038 166.761 268.55 167 269.22C167.241 269.888 167.362 270.693 167.362 271.636C167.362 272.585 167.243 273.395 167.004 274.065C166.766 274.733 166.42 275.243 165.969 275.595C165.517 275.945 164.97 276.119 164.328 276.119ZM164.328 275.182C164.964 275.182 165.459 274.875 165.811 274.261C166.163 273.648 166.339 272.773 166.339 271.636C166.339 270.881 166.259 270.237 166.097 269.706C165.938 269.175 165.707 268.77 165.406 268.491C165.108 268.213 164.749 268.074 164.328 268.074C163.697 268.074 163.205 268.385 162.849 269.007C162.494 269.626 162.317 270.503 162.317 271.636C162.317 272.392 162.396 273.034 162.555 273.562C162.714 274.091 162.943 274.493 163.241 274.768C163.543 275.044 163.905 275.182 164.328 275.182Z" fill="black"/>
<path id="10_2" d="M209.972 267.273V276H208.915V268.381H208.864L206.733 269.795V268.722L208.915 267.273H209.972ZM215.328 276.119C214.686 276.119 214.139 275.945 213.688 275.595C213.236 275.243 212.891 274.733 212.652 274.065C212.413 273.395 212.294 272.585 212.294 271.636C212.294 270.693 212.413 269.888 212.652 269.22C212.893 268.55 213.24 268.038 213.692 267.686C214.146 267.331 214.692 267.153 215.328 267.153C215.964 267.153 216.509 267.331 216.96 267.686C217.415 268.038 217.761 268.55 218 269.22C218.241 269.888 218.362 270.693 218.362 271.636C218.362 272.585 218.243 273.395 218.004 274.065C217.766 274.733 217.42 275.243 216.969 275.595C216.517 275.945 215.97 276.119 215.328 276.119ZM215.328 275.182C215.964 275.182 216.459 274.875 216.811 274.261C217.163 273.648 217.339 272.773 217.339 271.636C217.339 270.881 217.259 270.237 217.097 269.706C216.938 269.175 216.707 268.77 216.406 268.491C216.108 268.213 215.749 268.074 215.328 268.074C214.697 268.074 214.205 268.385 213.849 269.007C213.494 269.626 213.317 270.503 213.317 271.636C213.317 272.392 213.396 273.034 213.555 273.562C213.714 274.091 213.943 274.493 214.241 274.768C214.543 275.044 214.905 275.182 215.328 275.182Z" fill="black"/>
<path id="10_3" d="M260.972 267.273V276H259.915V268.381H259.864L257.733 269.795V268.722L259.915 267.273H260.972ZM266.328 276.119C265.686 276.119 265.139 275.945 264.688 275.595C264.236 275.243 263.891 274.733 263.652 274.065C263.413 273.395 263.294 272.585 263.294 271.636C263.294 270.693 263.413 269.888 263.652 269.22C263.893 268.55 264.24 268.038 264.692 267.686C265.146 267.331 265.692 267.153 266.328 267.153C266.964 267.153 267.509 267.331 267.96 267.686C268.415 268.038 268.761 268.55 269 269.22C269.241 269.888 269.362 270.693 269.362 271.636C269.362 272.585 269.243 273.395 269.004 274.065C268.766 274.733 268.42 275.243 267.969 275.595C267.517 275.945 266.97 276.119 266.328 276.119ZM266.328 275.182C266.964 275.182 267.459 274.875 267.811 274.261C268.163 273.648 268.339 272.773 268.339 271.636C268.339 270.881 268.259 270.237 268.097 269.706C267.938 269.175 267.707 268.77 267.406 268.491C267.108 268.213 266.749 268.074 266.328 268.074C265.697 268.074 265.205 268.385 264.849 269.007C264.494 269.626 264.317 270.503 264.317 271.636C264.317 272.392 264.396 273.034 264.555 273.562C264.714 274.091 264.943 274.493 265.241 274.768C265.543 275.044 265.905 275.182 266.328 275.182Z" fill="black"/>
<path id="10_4" d="M311.972 267.273V276H310.915V268.381H310.864L308.733 269.795V268.722L310.915 267.273H311.972ZM317.328 276.119C316.686 276.119 316.139 275.945 315.688 275.595C315.236 275.243 314.891 274.733 314.652 274.065C314.413 273.395 314.294 272.585 314.294 271.636C314.294 270.693 314.413 269.888 314.652 269.22C314.893 268.55 315.24 268.038 315.692 267.686C316.146 267.331 316.692 267.153 317.328 267.153C317.964 267.153 318.509 267.331 318.96 267.686C319.415 268.038 319.761 268.55 320 269.22C320.241 269.888 320.362 270.693 320.362 271.636C320.362 272.585 320.243 273.395 320.004 274.065C319.766 274.733 319.42 275.243 318.969 275.595C318.517 275.945 317.97 276.119 317.328 276.119ZM317.328 275.182C317.964 275.182 318.459 274.875 318.811 274.261C319.163 273.648 319.339 272.773 319.339 271.636C319.339 270.881 319.259 270.237 319.097 269.706C318.938 269.175 318.707 268.77 318.406 268.491C318.108 268.213 317.749 268.074 317.328 268.074C316.697 268.074 316.205 268.385 315.849 269.007C315.494 269.626 315.317 270.503 315.317 271.636C315.317 272.392 315.396 273.034 315.555 273.562C315.714 274.091 315.943 274.493 316.241 274.768C316.543 275.044 316.905 275.182 317.328 275.182Z" fill="black"/>
<path id="10_5" d="M362.972 267.273V276H361.915V268.381H361.864L359.733 269.795V268.722L361.915 267.273H362.972ZM368.328 276.119C367.686 276.119 367.139 275.945 366.688 275.595C366.236 275.243 365.891 274.733 365.652 274.065C365.413 273.395 365.294 272.585 365.294 271.636C365.294 270.693 365.413 269.888 365.652 269.22C365.893 268.55 366.24 268.038 366.692 267.686C367.146 267.331 367.692 267.153 368.328 267.153C368.964 267.153 369.509 267.331 369.96 267.686C370.415 268.038 370.761 268.55 371 269.22C371.241 269.888 371.362 270.693 371.362 271.636C371.362 272.585 371.243 273.395 371.004 274.065C370.766 274.733 370.42 275.243 369.969 275.595C369.517 275.945 368.97 276.119 368.328 276.119ZM368.328 275.182C368.964 275.182 369.459 274.875 369.811 274.261C370.163 273.648 370.339 272.773 370.339 271.636C370.339 270.881 370.259 270.237 370.097 269.706C369.938 269.175 369.707 268.77 369.406 268.491C369.108 268.213 368.749 268.074 368.328 268.074C367.697 268.074 367.205 268.385 366.849 269.007C366.494 269.626 366.317 270.503 366.317 271.636C366.317 272.392 366.396 273.034 366.555 273.562C366.714 274.091 366.943 274.493 367.241 274.768C367.543 275.044 367.905 275.182 368.328 275.182Z" fill="black"/>
<path id="10_6" d="M158.972 390.273V399H157.915V391.381H157.864L155.733 392.795V391.722L157.915 390.273H158.972ZM164.328 399.119C163.686 399.119 163.139 398.945 162.688 398.595C162.236 398.243 161.891 397.733 161.652 397.065C161.413 396.395 161.294 395.585 161.294 394.636C161.294 393.693 161.413 392.888 161.652 392.22C161.893 391.55 162.24 391.038 162.692 390.686C163.146 390.331 163.692 390.153 164.328 390.153C164.964 390.153 165.509 390.331 165.96 390.686C166.415 391.038 166.761 391.55 167 392.22C167.241 392.888 167.362 393.693 167.362 394.636C167.362 395.585 167.243 396.395 167.004 397.065C166.766 397.733 166.42 398.243 165.969 398.595C165.517 398.945 164.97 399.119 164.328 399.119ZM164.328 398.182C164.964 398.182 165.459 397.875 165.811 397.261C166.163 396.648 166.339 395.773 166.339 394.636C166.339 393.881 166.259 393.237 166.097 392.706C165.938 392.175 165.707 391.77 165.406 391.491C165.108 391.213 164.749 391.074 164.328 391.074C163.697 391.074 163.205 391.385 162.849 392.007C162.494 392.626 162.317 393.503 162.317 394.636C162.317 395.392 162.396 396.034 162.555 396.562C162.714 397.091 162.943 397.493 163.241 397.768C163.543 398.044 163.905 398.182 164.328 398.182Z" fill="black"/>
<path id="10_7" d="M209.972 390.273V399H208.915V391.381H208.864L206.733 392.795V391.722L208.915 390.273H209.972ZM215.328 399.119C214.686 399.119 214.139 398.945 213.688 398.595C213.236 398.243 212.891 397.733 212.652 397.065C212.413 396.395 212.294 395.585 212.294 394.636C212.294 393.693 212.413 392.888 212.652 392.22C212.893 391.55 213.24 391.038 213.692 390.686C214.146 390.331 214.692 390.153 215.328 390.153C215.964 390.153 216.509 390.331 216.96 390.686C217.415 391.038 217.761 391.55 218 392.22C218.241 392.888 218.362 393.693 218.362 394.636C218.362 395.585 218.243 396.395 218.004 397.065C217.766 397.733 217.42 398.243 216.969 398.595C216.517 398.945 215.97 399.119 215.328 399.119ZM215.328 398.182C215.964 398.182 216.459 397.875 216.811 397.261C217.163 396.648 217.339 395.773 217.339 394.636C217.339 393.881 217.259 393.237 217.097 392.706C216.938 392.175 216.707 391.77 216.406 391.491C216.108 391.213 215.749 391.074 215.328 391.074C214.697 391.074 214.205 391.385 213.849 392.007C213.494 392.626 213.317 393.503 213.317 394.636C213.317 395.392 213.396 396.034 213.555 396.562C213.714 397.091 213.943 397.493 214.241 397.768C214.543 398.044 214.905 398.182 215.328 398.182Z" fill="black"/>
<path id="10_8" d="M260.972 390.273V399H259.915V391.381H259.864L257.733 392.795V391.722L259.915 390.273H260.972ZM266.328 399.119C265.686 399.119 265.139 398.945 264.688 398.595C264.236 398.243 263.891 397.733 263.652 397.065C263.413 396.395 263.294 395.585 263.294 394.636C263.294 393.693 263.413 392.888 263.652 392.22C263.893 391.55 264.24 391.038 264.692 390.686C265.146 390.331 265.692 390.153 266.328 390.153C266.964 390.153 267.509 390.331 267.96 390.686C268.415 391.038 268.761 391.55 269 392.22C269.241 392.888 269.362 393.693 269.362 394.636C269.362 395.585 269.243 396.395 269.004 397.065C268.766 397.733 268.42 398.243 267.969 398.595C267.517 398.945 266.97 399.119 266.328 399.119ZM266.328 398.182C266.964 398.182 267.459 397.875 267.811 397.261C268.163 396.648 268.339 395.773 268.339 394.636C268.339 393.881 268.259 393.237 268.097 392.706C267.938 392.175 267.707 391.77 267.406 391.491C267.108 391.213 266.749 391.074 266.328 391.074C265.697 391.074 265.205 391.385 264.849 392.007C264.494 392.626 264.317 393.503 264.317 394.636C264.317 395.392 264.396 396.034 264.555 396.562C264.714 397.091 264.943 397.493 265.241 397.768C265.543 398.044 265.905 398.182 266.328 398.182Z" fill="black"/>
<path id="10_9" d="M311.972 390.273V399H310.915V391.381H310.864L308.733 392.795V391.722L310.915 390.273H311.972ZM317.328 399.119C316.686 399.119 316.139 398.945 315.688 398.595C315.236 398.243 314.891 397.733 314.652 397.065C314.413 396.395 314.294 395.585 314.294 394.636C314.294 393.693 314.413 392.888 314.652 392.22C314.893 391.55 315.24 391.038 315.692 390.686C316.146 390.331 316.692 390.153 317.328 390.153C317.964 390.153 318.509 390.331 318.96 390.686C319.415 391.038 319.761 391.55 320 392.22C320.241 392.888 320.362 393.693 320.362 394.636C320.362 395.585 320.243 396.395 320.004 397.065C319.766 397.733 319.42 398.243 318.969 398.595C318.517 398.945 317.97 399.119 317.328 399.119ZM317.328 398.182C317.964 398.182 318.459 397.875 318.811 397.261C319.163 396.648 319.339 395.773 319.339 394.636C319.339 393.881 319.259 393.237 319.097 392.706C318.938 392.175 318.707 391.77 318.406 391.491C318.108 391.213 317.749 391.074 317.328 391.074C316.697 391.074 316.205 391.385 315.849 392.007C315.494 392.626 315.317 393.503 315.317 394.636C315.317 395.392 315.396 396.034 315.555 396.562C315.714 397.091 315.943 397.493 316.241 397.768C316.543 398.044 316.905 398.182 317.328 398.182Z" fill="black"/>
<path id="10_10" d="M362.972 390.273V399H361.915V391.381H361.864L359.733 392.795V391.722L361.915 390.273H362.972ZM368.328 399.119C367.686 399.119 367.139 398.945 366.688 398.595C366.236 398.243 365.891 397.733 365.652 397.065C365.413 396.395 365.294 395.585 365.294 394.636C365.294 393.693 365.413 392.888 365.652 392.22C365.893 391.55 366.24 391.038 366.692 390.686C367.146 390.331 367.692 390.153 368.328 390.153C368.964 390.153 369.509 390.331 369.96 390.686C370.415 391.038 370.761 391.55 371 392.22C371.241 392.888 371.362 393.693 371.362 394.636C371.362 395.585 371.243 396.395 371.004 397.065C370.766 397.733 370.42 398.243 369.969 398.595C369.517 398.945 368.97 399.119 368.328 399.119ZM368.328 398.182C368.964 398.182 369.459 397.875 369.811 397.261C370.163 396.648 370.339 395.773 370.339 394.636C370.339 393.881 370.259 393.237 370.097 392.706C369.938 392.175 369.707 391.77 369.406 391.491C369.108 391.213 368.749 391.074 368.328 391.074C367.697 391.074 367.205 391.385 366.849 392.007C366.494 392.626 366.317 393.503 366.317 394.636C366.317 395.392 366.396 396.034 366.555 396.562C366.714 397.091 366.943 397.493 367.241 397.768C367.543 398.044 367.905 398.182 368.328 398.182Z" fill="black"/>
<rect id="Rectangle 28" x="320" y="650" width="49" height="63" fill="#FF0000"/>
<rect id="Rectangle 29" x="217" y="650" width="49" height="63" fill="#FF0000"/>
<rect id="Rectangle 30" x="68" y="650" width="49" height="63" fill="#FF0000"/>
<path id="Kasse" d="M69.0568 662V653.273H70.1136V657.602H70.2159L74.1364 653.273H75.517L71.8523 657.21L75.517 662H74.2386L71.2045 657.943L70.1136 659.17V662H69.0568ZM78.6747 662.153C78.2599 662.153 77.8835 662.075 77.5455 661.919C77.2074 661.76 76.9389 661.531 76.7401 661.233C76.5412 660.932 76.4418 660.568 76.4418 660.142C76.4418 659.767 76.5156 659.463 76.6634 659.23C76.8111 658.994 77.0085 658.81 77.2557 658.676C77.5028 658.543 77.7756 658.443 78.0739 658.378C78.375 658.31 78.6776 658.256 78.9815 658.216C79.3793 658.165 79.7017 658.126 79.9489 658.101C80.1989 658.072 80.3807 658.026 80.4943 657.96C80.6108 657.895 80.669 657.781 80.669 657.619V657.585C80.669 657.165 80.554 656.838 80.3239 656.605C80.0966 656.372 79.7514 656.256 79.2884 656.256C78.8082 656.256 78.4318 656.361 78.1591 656.571C77.8864 656.781 77.6946 657.006 77.5838 657.244L76.6293 656.903C76.7997 656.506 77.027 656.196 77.3111 655.974C77.598 655.75 77.9105 655.594 78.2486 655.506C78.5895 655.415 78.9247 655.369 79.2543 655.369C79.4645 655.369 79.706 655.395 79.9787 655.446C80.2543 655.494 80.5199 655.595 80.7756 655.749C81.0341 655.902 81.2486 656.134 81.419 656.443C81.5895 656.753 81.6747 657.168 81.6747 657.688V662H80.669V661.114H80.6179C80.5497 661.256 80.4361 661.408 80.277 661.57C80.1179 661.732 79.9063 661.869 79.642 661.983C79.3778 662.097 79.0554 662.153 78.6747 662.153ZM78.8281 661.25C79.2259 661.25 79.5611 661.172 79.8338 661.016C80.1094 660.859 80.3168 660.658 80.456 660.411C80.598 660.163 80.669 659.903 80.669 659.631V658.71C80.6264 658.761 80.5327 658.808 80.3878 658.851C80.2457 658.891 80.081 658.926 79.8935 658.957C79.7088 658.986 79.5284 659.011 79.3523 659.034C79.179 659.054 79.0384 659.071 78.9304 659.085C78.669 659.119 78.4247 659.175 78.1974 659.251C77.973 659.325 77.7912 659.437 77.652 659.588C77.5156 659.736 77.4474 659.937 77.4474 660.193C77.4474 660.543 77.5767 660.807 77.8352 660.986C78.0966 661.162 78.4276 661.25 78.8281 661.25ZM88.1467 656.92L87.2433 657.176C87.1864 657.026 87.1026 656.879 86.9918 656.737C86.8839 656.592 86.7362 656.473 86.5487 656.379C86.3612 656.286 86.1211 656.239 85.8285 656.239C85.4279 656.239 85.0941 656.331 84.8271 656.516C84.5629 656.697 84.4308 656.929 84.4308 657.21C84.4308 657.46 84.5217 657.658 84.7035 657.803C84.8853 657.947 85.1694 658.068 85.5558 658.165L86.5273 658.403C87.1126 658.545 87.5487 658.763 87.8356 659.055C88.1225 659.345 88.266 659.719 88.266 660.176C88.266 660.551 88.158 660.886 87.9421 661.182C87.729 661.477 87.4308 661.71 87.0472 661.881C86.6637 662.051 86.2177 662.136 85.7092 662.136C85.0415 662.136 84.489 661.991 84.0515 661.702C83.614 661.412 83.337 660.989 83.2205 660.432L84.1751 660.193C84.266 660.545 84.4379 660.81 84.6907 660.986C84.9464 661.162 85.2802 661.25 85.6921 661.25C86.1609 661.25 86.533 661.151 86.8086 660.952C87.087 660.75 87.2262 660.509 87.2262 660.227C87.2262 660 87.1467 659.81 86.9876 659.656C86.8285 659.5 86.5842 659.384 86.2546 659.307L85.1637 659.051C84.5643 658.909 84.1239 658.689 83.8427 658.391C83.5643 658.089 83.4251 657.713 83.4251 657.261C83.4251 656.892 83.5288 656.565 83.7362 656.281C83.9464 655.997 84.2319 655.774 84.5927 655.612C84.9563 655.45 85.3683 655.369 85.8285 655.369C86.4762 655.369 86.9847 655.511 87.354 655.795C87.7262 656.08 87.9904 656.455 88.1467 656.92ZM94.4162 656.92L93.5128 657.176C93.456 657.026 93.3722 656.879 93.2614 656.737C93.1534 656.592 93.0057 656.473 92.8182 656.379C92.6307 656.286 92.3906 656.239 92.098 656.239C91.6974 656.239 91.3636 656.331 91.0966 656.516C90.8324 656.697 90.7003 656.929 90.7003 657.21C90.7003 657.46 90.7912 657.658 90.973 657.803C91.1548 657.947 91.4389 658.068 91.8253 658.165L92.7969 658.403C93.3821 658.545 93.8182 658.763 94.1051 659.055C94.392 659.345 94.5355 659.719 94.5355 660.176C94.5355 660.551 94.4276 660.886 94.2116 661.182C93.9986 661.477 93.7003 661.71 93.3168 661.881C92.9332 662.051 92.4872 662.136 91.9787 662.136C91.3111 662.136 90.7585 661.991 90.321 661.702C89.8835 661.412 89.6065 660.989 89.4901 660.432L90.4446 660.193C90.5355 660.545 90.7074 660.81 90.9602 660.986C91.2159 661.162 91.5497 661.25 91.9616 661.25C92.4304 661.25 92.8026 661.151 93.0781 660.952C93.3565 660.75 93.4957 660.509 93.4957 660.227C93.4957 660 93.4162 659.81 93.2571 659.656C93.098 659.5 92.8537 659.384 92.5241 659.307L91.4332 659.051C90.8338 658.909 90.3935 658.689 90.1122 658.391C89.8338 658.089 89.6946 657.713 89.6946 657.261C89.6946 656.892 89.7983 656.565 90.0057 656.281C90.2159 655.997 90.5014 655.774 90.8622 655.612C91.2259 655.45 91.6378 655.369 92.098 655.369C92.7457 655.369 93.2543 655.511 93.6236 655.795C93.9957 656.08 94.2599 656.455 94.4162 656.92ZM98.7937 662.136C98.163 662.136 97.619 661.997 97.1616 661.719C96.707 661.438 96.3562 661.045 96.109 660.543C95.8647 660.037 95.7425 659.449 95.7425 658.778C95.7425 658.108 95.8647 657.517 96.109 657.006C96.3562 656.491 96.6999 656.091 97.1403 655.804C97.5835 655.514 98.1005 655.369 98.6914 655.369C99.0323 655.369 99.369 655.426 99.7013 655.54C100.034 655.653 100.336 655.838 100.609 656.094C100.882 656.347 101.099 656.682 101.261 657.099C101.423 657.517 101.504 658.031 101.504 658.642V659.068H96.4585V658.199H100.481C100.481 657.83 100.407 657.5 100.26 657.21C100.115 656.92 99.9073 656.692 99.6374 656.524C99.3704 656.357 99.055 656.273 98.6914 656.273C98.2908 656.273 97.9442 656.372 97.6516 656.571C97.3619 656.767 97.1388 657.023 96.9826 657.338C96.8263 657.653 96.7482 657.991 96.7482 658.352V658.932C96.7482 659.426 96.8335 659.845 97.0039 660.189C97.1772 660.53 97.4173 660.79 97.7241 660.969C98.0309 661.145 98.3874 661.233 98.7937 661.233C99.0579 661.233 99.2965 661.196 99.5096 661.122C99.7255 661.045 99.9116 660.932 100.068 660.781C100.224 660.628 100.345 660.437 100.43 660.21L101.402 660.483C101.299 660.812 101.127 661.102 100.886 661.352C100.645 661.599 100.346 661.793 99.9911 661.932C99.636 662.068 99.2369 662.136 98.7937 662.136Z" fill="white"/>
<path id="Kasse_2" d="M218.057 662V653.273H219.114V657.602H219.216L223.136 653.273H224.517L220.852 657.21L224.517 662H223.239L220.205 657.943L219.114 659.17V662H218.057ZM227.675 662.153C227.26 662.153 226.884 662.075 226.545 661.919C226.207 661.76 225.939 661.531 225.74 661.233C225.541 660.932 225.442 660.568 225.442 660.142C225.442 659.767 225.516 659.463 225.663 659.23C225.811 658.994 226.009 658.81 226.256 658.676C226.503 658.543 226.776 658.443 227.074 658.378C227.375 658.31 227.678 658.256 227.982 658.216C228.379 658.165 228.702 658.126 228.949 658.101C229.199 658.072 229.381 658.026 229.494 657.96C229.611 657.895 229.669 657.781 229.669 657.619V657.585C229.669 657.165 229.554 656.838 229.324 656.605C229.097 656.372 228.751 656.256 228.288 656.256C227.808 656.256 227.432 656.361 227.159 656.571C226.886 656.781 226.695 657.006 226.584 657.244L225.629 656.903C225.8 656.506 226.027 656.196 226.311 655.974C226.598 655.75 226.911 655.594 227.249 655.506C227.589 655.415 227.925 655.369 228.254 655.369C228.464 655.369 228.706 655.395 228.979 655.446C229.254 655.494 229.52 655.595 229.776 655.749C230.034 655.902 230.249 656.134 230.419 656.443C230.589 656.753 230.675 657.168 230.675 657.688V662H229.669V661.114H229.618C229.55 661.256 229.436 661.408 229.277 661.57C229.118 661.732 228.906 661.869 228.642 661.983C228.378 662.097 228.055 662.153 227.675 662.153ZM227.828 661.25C228.226 661.25 228.561 661.172 228.834 661.016C229.109 660.859 229.317 660.658 229.456 660.411C229.598 660.163 229.669 659.903 229.669 659.631V658.71C229.626 658.761 229.533 658.808 229.388 658.851C229.246 658.891 229.081 658.926 228.893 658.957C228.709 658.986 228.528 659.011 228.352 659.034C228.179 659.054 228.038 659.071 227.93 659.085C227.669 659.119 227.425 659.175 227.197 659.251C226.973 659.325 226.791 659.437 226.652 659.588C226.516 659.736 226.447 659.937 226.447 660.193C226.447 660.543 226.577 660.807 226.835 660.986C227.097 661.162 227.428 661.25 227.828 661.25ZM237.147 656.92L236.243 657.176C236.186 657.026 236.103 656.879 235.992 656.737C235.884 656.592 235.736 656.473 235.549 656.379C235.361 656.286 235.121 656.239 234.828 656.239C234.428 656.239 234.094 656.331 233.827 656.516C233.563 656.697 233.431 656.929 233.431 657.21C233.431 657.46 233.522 657.658 233.703 657.803C233.885 657.947 234.169 658.068 234.556 658.165L235.527 658.403C236.113 658.545 236.549 658.763 236.836 659.055C237.123 659.345 237.266 659.719 237.266 660.176C237.266 660.551 237.158 660.886 236.942 661.182C236.729 661.477 236.431 661.71 236.047 661.881C235.664 662.051 235.218 662.136 234.709 662.136C234.042 662.136 233.489 661.991 233.051 661.702C232.614 661.412 232.337 660.989 232.221 660.432L233.175 660.193C233.266 660.545 233.438 660.81 233.691 660.986C233.946 661.162 234.28 661.25 234.692 661.25C235.161 661.25 235.533 661.151 235.809 660.952C236.087 660.75 236.226 660.509 236.226 660.227C236.226 660 236.147 659.81 235.988 659.656C235.828 659.5 235.584 659.384 235.255 659.307L234.164 659.051C233.564 658.909 233.124 658.689 232.843 658.391C232.564 658.089 232.425 657.713 232.425 657.261C232.425 656.892 232.529 656.565 232.736 656.281C232.946 655.997 233.232 655.774 233.593 655.612C233.956 655.45 234.368 655.369 234.828 655.369C235.476 655.369 235.985 655.511 236.354 655.795C236.726 656.08 236.99 656.455 237.147 656.92ZM243.416 656.92L242.513 657.176C242.456 657.026 242.372 656.879 242.261 656.737C242.153 656.592 242.006 656.473 241.818 656.379C241.631 656.286 241.391 656.239 241.098 656.239C240.697 656.239 240.364 656.331 240.097 656.516C239.832 656.697 239.7 656.929 239.7 657.21C239.7 657.46 239.791 657.658 239.973 657.803C240.155 657.947 240.439 658.068 240.825 658.165L241.797 658.403C242.382 658.545 242.818 658.763 243.105 659.055C243.392 659.345 243.536 659.719 243.536 660.176C243.536 660.551 243.428 660.886 243.212 661.182C242.999 661.477 242.7 661.71 242.317 661.881C241.933 662.051 241.487 662.136 240.979 662.136C240.311 662.136 239.759 661.991 239.321 661.702C238.884 661.412 238.607 660.989 238.49 660.432L239.445 660.193C239.536 660.545 239.707 660.81 239.96 660.986C240.216 661.162 240.55 661.25 240.962 661.25C241.43 661.25 241.803 661.151 242.078 660.952C242.357 660.75 242.496 660.509 242.496 660.227C242.496 660 242.416 659.81 242.257 659.656C242.098 659.5 241.854 659.384 241.524 659.307L240.433 659.051C239.834 658.909 239.393 658.689 239.112 658.391C238.834 658.089 238.695 657.713 238.695 657.261C238.695 656.892 238.798 656.565 239.006 656.281C239.216 655.997 239.501 655.774 239.862 655.612C240.226 655.45 240.638 655.369 241.098 655.369C241.746 655.369 242.254 655.511 242.624 655.795C242.996 656.08 243.26 656.455 243.416 656.92ZM247.794 662.136C247.163 662.136 246.619 661.997 246.162 661.719C245.707 661.438 245.356 661.045 245.109 660.543C244.865 660.037 244.743 659.449 244.743 658.778C244.743 658.108 244.865 657.517 245.109 657.006C245.356 656.491 245.7 656.091 246.14 655.804C246.583 655.514 247.1 655.369 247.691 655.369C248.032 655.369 248.369 655.426 248.701 655.54C249.034 655.653 249.336 655.838 249.609 656.094C249.882 656.347 250.099 656.682 250.261 657.099C250.423 657.517 250.504 658.031 250.504 658.642V659.068H245.458V658.199H249.481C249.481 657.83 249.407 657.5 249.26 657.21C249.115 656.92 248.907 656.692 248.637 656.524C248.37 656.357 248.055 656.273 247.691 656.273C247.291 656.273 246.944 656.372 246.652 656.571C246.362 656.767 246.139 657.023 245.983 657.338C245.826 657.653 245.748 657.991 245.748 658.352V658.932C245.748 659.426 245.833 659.845 246.004 660.189C246.177 660.53 246.417 660.79 246.724 660.969C247.031 661.145 247.387 661.233 247.794 661.233C248.058 661.233 248.297 661.196 248.51 661.122C248.725 661.045 248.912 660.932 249.068 660.781C249.224 660.628 249.345 660.437 249.43 660.21L250.402 660.483C250.299 660.812 250.127 661.102 249.886 661.352C249.645 661.599 249.346 661.793 248.991 661.932C248.636 662.068 248.237 662.136 247.794 662.136Z" fill="white"/>
<path id="Kasse_3" d="M321.057 662V653.273H322.114V657.602H322.216L326.136 653.273H327.517L323.852 657.21L327.517 662H326.239L323.205 657.943L322.114 659.17V662H321.057ZM330.675 662.153C330.26 662.153 329.884 662.075 329.545 661.919C329.207 661.76 328.939 661.531 328.74 661.233C328.541 660.932 328.442 660.568 328.442 660.142C328.442 659.767 328.516 659.463 328.663 659.23C328.811 658.994 329.009 658.81 329.256 658.676C329.503 658.543 329.776 658.443 330.074 658.378C330.375 658.31 330.678 658.256 330.982 658.216C331.379 658.165 331.702 658.126 331.949 658.101C332.199 658.072 332.381 658.026 332.494 657.96C332.611 657.895 332.669 657.781 332.669 657.619V657.585C332.669 657.165 332.554 656.838 332.324 656.605C332.097 656.372 331.751 656.256 331.288 656.256C330.808 656.256 330.432 656.361 330.159 656.571C329.886 656.781 329.695 657.006 329.584 657.244L328.629 656.903C328.8 656.506 329.027 656.196 329.311 655.974C329.598 655.75 329.911 655.594 330.249 655.506C330.589 655.415 330.925 655.369 331.254 655.369C331.464 655.369 331.706 655.395 331.979 655.446C332.254 655.494 332.52 655.595 332.776 655.749C333.034 655.902 333.249 656.134 333.419 656.443C333.589 656.753 333.675 657.168 333.675 657.688V662H332.669V661.114H332.618C332.55 661.256 332.436 661.408 332.277 661.57C332.118 661.732 331.906 661.869 331.642 661.983C331.378 662.097 331.055 662.153 330.675 662.153ZM330.828 661.25C331.226 661.25 331.561 661.172 331.834 661.016C332.109 660.859 332.317 660.658 332.456 660.411C332.598 660.163 332.669 659.903 332.669 659.631V658.71C332.626 658.761 332.533 658.808 332.388 658.851C332.246 658.891 332.081 658.926 331.893 658.957C331.709 658.986 331.528 659.011 331.352 659.034C331.179 659.054 331.038 659.071 330.93 659.085C330.669 659.119 330.425 659.175 330.197 659.251C329.973 659.325 329.791 659.437 329.652 659.588C329.516 659.736 329.447 659.937 329.447 660.193C329.447 660.543 329.577 660.807 329.835 660.986C330.097 661.162 330.428 661.25 330.828 661.25ZM340.147 656.92L339.243 657.176C339.186 657.026 339.103 656.879 338.992 656.737C338.884 656.592 338.736 656.473 338.549 656.379C338.361 656.286 338.121 656.239 337.828 656.239C337.428 656.239 337.094 656.331 336.827 656.516C336.563 656.697 336.431 656.929 336.431 657.21C336.431 657.46 336.522 657.658 336.703 657.803C336.885 657.947 337.169 658.068 337.556 658.165L338.527 658.403C339.113 658.545 339.549 658.763 339.836 659.055C340.123 659.345 340.266 659.719 340.266 660.176C340.266 660.551 340.158 660.886 339.942 661.182C339.729 661.477 339.431 661.71 339.047 661.881C338.664 662.051 338.218 662.136 337.709 662.136C337.042 662.136 336.489 661.991 336.051 661.702C335.614 661.412 335.337 660.989 335.221 660.432L336.175 660.193C336.266 660.545 336.438 660.81 336.691 660.986C336.946 661.162 337.28 661.25 337.692 661.25C338.161 661.25 338.533 661.151 338.809 660.952C339.087 660.75 339.226 660.509 339.226 660.227C339.226 660 339.147 659.81 338.988 659.656C338.828 659.5 338.584 659.384 338.255 659.307L337.164 659.051C336.564 658.909 336.124 658.689 335.843 658.391C335.564 658.089 335.425 657.713 335.425 657.261C335.425 656.892 335.529 656.565 335.736 656.281C335.946 655.997 336.232 655.774 336.593 655.612C336.956 655.45 337.368 655.369 337.828 655.369C338.476 655.369 338.985 655.511 339.354 655.795C339.726 656.08 339.99 656.455 340.147 656.92ZM346.416 656.92L345.513 657.176C345.456 657.026 345.372 656.879 345.261 656.737C345.153 656.592 345.006 656.473 344.818 656.379C344.631 656.286 344.391 656.239 344.098 656.239C343.697 656.239 343.364 656.331 343.097 656.516C342.832 656.697 342.7 656.929 342.7 657.21C342.7 657.46 342.791 657.658 342.973 657.803C343.155 657.947 343.439 658.068 343.825 658.165L344.797 658.403C345.382 658.545 345.818 658.763 346.105 659.055C346.392 659.345 346.536 659.719 346.536 660.176C346.536 660.551 346.428 660.886 346.212 661.182C345.999 661.477 345.7 661.71 345.317 661.881C344.933 662.051 344.487 662.136 343.979 662.136C343.311 662.136 342.759 661.991 342.321 661.702C341.884 661.412 341.607 660.989 341.49 660.432L342.445 660.193C342.536 660.545 342.707 660.81 342.96 660.986C343.216 661.162 343.55 661.25 343.962 661.25C344.43 661.25 344.803 661.151 345.078 660.952C345.357 660.75 345.496 660.509 345.496 660.227C345.496 660 345.416 659.81 345.257 659.656C345.098 659.5 344.854 659.384 344.524 659.307L343.433 659.051C342.834 658.909 342.393 658.689 342.112 658.391C341.834 658.089 341.695 657.713 341.695 657.261C341.695 656.892 341.798 656.565 342.006 656.281C342.216 655.997 342.501 655.774 342.862 655.612C343.226 655.45 343.638 655.369 344.098 655.369C344.746 655.369 345.254 655.511 345.624 655.795C345.996 656.08 346.26 656.455 346.416 656.92ZM350.794 662.136C350.163 662.136 349.619 661.997 349.162 661.719C348.707 661.438 348.356 661.045 348.109 660.543C347.865 660.037 347.743 659.449 347.743 658.778C347.743 658.108 347.865 657.517 348.109 657.006C348.356 656.491 348.7 656.091 349.14 655.804C349.583 655.514 350.1 655.369 350.691 655.369C351.032 655.369 351.369 655.426 351.701 655.54C352.034 655.653 352.336 655.838 352.609 656.094C352.882 656.347 353.099 656.682 353.261 657.099C353.423 657.517 353.504 658.031 353.504 658.642V659.068H348.458V658.199H352.481C352.481 657.83 352.407 657.5 352.26 657.21C352.115 656.92 351.907 656.692 351.637 656.524C351.37 656.357 351.055 656.273 350.691 656.273C350.291 656.273 349.944 656.372 349.652 656.571C349.362 656.767 349.139 657.023 348.983 657.338C348.826 657.653 348.748 657.991 348.748 658.352V658.932C348.748 659.426 348.833 659.845 349.004 660.189C349.177 660.53 349.417 660.79 349.724 660.969C350.031 661.145 350.387 661.233 350.794 661.233C351.058 661.233 351.297 661.196 351.51 661.122C351.725 661.045 351.912 660.932 352.068 660.781C352.224 660.628 352.345 660.437 352.43 660.21L353.402 660.483C353.299 660.812 353.127 661.102 352.886 661.352C352.645 661.599 352.346 661.793 351.991 661.932C351.636 662.068 351.237 662.136 350.794 662.136Z" fill="white"/>
</g>
</svg>
